<svg fill="none" xmlns="http://www.w3.org/2000/svg" viewBox="0 0 1020 792">
  <path d="M391.5 692C275.957 735.125 270 758.5 159 752.5 80.614 748.262 0 715 0 715s107.244 77 214 77c60 0 148-40.244 221.5-74C536 671.844 624.159 664.842 698 660c122-8 322 32 322 32s-92.299-38.639-218-59.5c-140-23.234-294.957 16.374-410.5 59.5z" fill="#5663A0"/>
  <path d="M990.55 435.473L168.977 606.5s39.781 22.809 55.023 47c13.783 21.875 20 70 20 70s110.474-57.825 266-96.139C665.526 589.048 781.5 606.5 781.5 606.5s16.839-31.725 51.5-74c43.313-52.828 157.55-97.027 157.55-97.027z" fill="#F89C0E"/>
  <path d="M325 271c14.125 206-61 280-61 280s55.421-45.834 98-69.5c28.526-15.855 66-21.5 66-21.5s36.48-134.016-19-289C363 42.5 254 13 254 13s56.875 52 71 258z" fill="#6C78AF" fill-opacity=".75"/>
  <path d="M407.937 539.925c-1.242 1.392-1.937 2.074-1.937 2.074s.655-.734 1.937-2.074c12.166-13.631 76.793-95.306 54.563-270.426-24.5-193-123-246-123-246S506.066 28.327 632 201c97 133 97 268.5 97 268.5s-10.68-25.877-117-22.5c-113.611 3.609-191.065 79.349-204.063 92.926z" fill="#6C78AF"/>
</svg>
