<svg fill="none" xmlns="http://www.w3.org/2000/svg" viewBox="0 0 92 15">
  <path d="M4.291 11.137c-.898 0-1.602-.326-2.112-.978h-.11c.073.638.11 1.007.11 1.108v3.096H.094V3.357h1.695l.294.992h.096c.487-.757 1.21-1.135 2.167-1.135.902 0 1.608.349 2.119 1.046.51.697.765 1.665.765 2.905 0 .816-.12 1.524-.362 2.126-.237.602-.576 1.06-1.018 1.374-.442.315-.962.472-1.559.472zm-.615-6.255c-.515 0-.891.16-1.128.478-.237.315-.36.837-.37 1.566v.225c0 .82.121 1.409.363 1.764.246.356.633.533 1.162.533.934 0 1.401-.77 1.401-2.31 0-.752-.116-1.315-.348-1.689-.228-.378-.588-.567-1.08-.567zM16.008 11h-2.085V6.536c0-1.103-.41-1.654-1.23-1.654-.584 0-1.005.198-1.265.595-.26.396-.39 1.039-.39 1.927V11H8.953V.363h2.085V2.53c0 .169-.016.565-.048 1.19l-.048.615h.11c.465-.747 1.203-1.121 2.215-1.121.897 0 1.579.241 2.043.724.465.484.698 1.176.698 2.079V11zm6.344.137c-.898 0-1.602-.326-2.113-.978h-.11c.074.638.11 1.007.11 1.108v3.096h-2.085V3.357h1.696l.294.992h.095c.488-.757 1.21-1.135 2.167-1.135.903 0 1.609.349 2.12 1.046.51.697.765 1.665.765 2.905 0 .816-.12 1.524-.362 2.126-.237.602-.577 1.06-1.019 1.374-.442.315-.961.472-1.558.472zm-.616-6.255c-.515 0-.89.16-1.128.478-.237.315-.36.837-.369 1.566v.225c0 .82.121 1.409.363 1.764.246.356.633.533 1.162.533.934 0 1.401-.77 1.401-2.31 0-.752-.116-1.315-.349-1.689-.227-.378-.587-.567-1.08-.567z" fill="#545D86"/>
  <path d="M31.41 11l-2.407-7.84h-.062c.087 1.594.13 2.658.13 3.192V11h-1.893V1.006h2.884l2.366 7.642h.04l2.51-7.642h2.884V11h-1.975V6.27c0-.224.002-.481.007-.773.009-.292.04-1.066.095-2.324h-.061L33.35 11h-1.942zm7.717-7.643h2.283l1.443 4.3c.123.374.207.816.252 1.326h.042c.05-.469.148-.911.293-1.326l1.416-4.3h2.235l-3.234 8.62c-.296.798-.72 1.395-1.271 1.792-.547.396-1.187.594-1.921.594-.36 0-.713-.038-1.06-.116v-1.654c.251.059.525.089.82.089.37 0 .691-.114.965-.342.278-.223.494-.563.65-1.019l.122-.376-3.035-7.588zM54.474 11l-.725-2.379h-3.644L49.382 11h-2.283L50.625.965h2.59L56.758 11h-2.283zm-1.23-4.156l-1.136-3.657a11.476 11.476 0 01-.177-.67c-.15.583-.581 2.025-1.292 4.327h2.604zm7.033 4.293c-.897 0-1.604-.349-2.119-1.046-.51-.697-.765-1.664-.765-2.899 0-1.253.26-2.228.779-2.925.524-.702 1.244-1.053 2.16-1.053.962 0 1.695.374 2.201 1.121h.069a8.517 8.517 0 01-.158-1.524V.363h2.092V11h-1.6l-.403-.991h-.089c-.474.752-1.196 1.128-2.167 1.128zm.732-1.661c.533 0 .923-.155 1.169-.465.25-.31.387-.837.41-1.58v-.225c0-.82-.128-1.408-.383-1.764-.25-.355-.66-.533-1.23-.533-.465 0-.828.198-1.087.595-.255.392-.383.964-.383 1.716s.13 1.317.39 1.695c.26.374.63.56 1.114.56zM73.559 11h-2.084V6.536c0-.551-.094-.964-.28-1.237-.183-.278-.472-.417-.869-.417-.533 0-.92.196-1.162.588-.242.392-.362 1.037-.362 1.934V11h-2.085V3.357h1.593l.28.978h.116c.205-.351.501-.624.889-.82.387-.2.831-.301 1.333-.301 1.144 0 1.918.374 2.324 1.121h.184c.206-.356.506-.631.903-.827a3.042 3.042 0 011.353-.294c.866 0 1.52.223 1.962.67.447.442.67 1.153.67 2.133V11h-2.092V6.536c0-.551-.093-.964-.28-1.237-.182-.278-.471-.417-.868-.417-.51 0-.893.182-1.148.547-.251.364-.376.943-.376 1.736V11zm6.823-9.618c0-.68.378-1.019 1.135-1.019.756 0 1.134.34 1.134 1.019 0 .323-.095.576-.287.759-.187.177-.47.266-.847.266-.757 0-1.135-.342-1.135-1.025zM82.556 11H80.47V3.357h2.085V11zm9.249 0H89.72V6.536c0-.551-.098-.964-.294-1.237-.196-.278-.508-.417-.937-.417-.583 0-1.005.196-1.264.588-.26.387-.39 1.032-.39 1.934V11H84.75V3.357h1.593l.28.978h.116c.233-.37.552-.647.957-.834a3.26 3.26 0 011.395-.287c.889 0 1.563.241 2.023.724.46.479.69 1.172.69 2.079V11z" fill="#F89C0E"/>
</svg>
