<svg xmlns="http://www.w3.org/2000/svg" shape-rendering="geometricPrecision" text-rendering="geometricPrecision" image-rendering="optimizeQuality" fill-rule="evenodd" clip-rule="evenodd" viewBox="0 0 511.9 285.85"><path fill="#CCC" fill-rule="nonzero" d="m380.24.8-.27-.53c-.13-.13-.26-.27-.53-.27l-.54.14c-.26.26-.4.4-.4.66l-11.38 206.11 1.74-.26 10.98-200.5 13.13 21.56h-.14c9.91 29.2 14.07 60.27 12.46 93.22l.8 1.2 13 23.04.8.8c19.95 17.55 42.32 29.34 67.1 35.36l6.03 9.78.8.27.13-.27L379.97 4.68l.27-3.89V.8zm120.81 199.3c5.63-.67 9.24-1.88 10.85-3.62l-286.62 34.96h-.13c.13 11.92 5.49 21.29 15.94 27.99 2.81 2.01 5.76 3.48 8.43 4.42 2.55-2.95 5.36-5.09 8.71-7.1h.13c30.01-18.21 74.61-21.03 133.53-8.57l.67.13c6.43 1.34 12.86 2.95 18.89 4.82 1.74.27 3.21-.26 4.42-1.34 2.14-1.6 4.82-2.81 8.44-3.61v-.14c9.51-16.87 22.36-29.33 38.44-37.5 11.11-5.49 23.97-9.1 38.3-10.44zm-137.68 5.22L376.49 4.15c-19.02 73.4-49.55 141.97-91.47 205.59l78.35-4.42zm-73.8-162.06-.53-.27-.54.14-.27.67-10.85 174.11 1.61-.13L289.84 43.8l-.27-.54zm-15.27 170.9 11.52-169.83-60.67 175.05 49.15-5.22zM380.24.8l-4.01 72.73c14.06 28.8 19.15 72.32 15.4 130.58l54.78-6.69-70.18-123.89L380.24.8 274.3 214.16 380.24.8zm-29.5 41.94c1.17.72 1.54 2.25.83 3.43a2.508 2.508 0 0 1-3.43.83c-2.76-1.69-5.55-2.32-8.36-1.87-2.93.48-5.99 2.12-9.18 4.95-1 .88-2.51.82-3.43-.12-2.7-2.76-5.4-4.36-8.08-4.83-2.61-.44-5.33.19-8.15 1.88-1.18.7-2.71.32-3.42-.86-.7-1.18-.32-2.71.86-3.42 3.88-2.33 7.73-3.17 11.55-2.51 3.14.54 6.18 2.09 9.13 4.67 3.32-2.58 6.64-4.14 9.94-4.67 4.02-.65 7.94.19 11.74 2.52zm-14.89-22.51c1.18.71 1.57 2.24.86 3.42a2.502 2.502 0 0 1-3.42.86c-2.76-1.66-5.46-2.17-8.11-1.53-2.83.68-5.73 2.65-8.74 5.9-.93 1-2.51 1.07-3.51.13l-.15-.15c-2.95-3.23-5.84-5.2-8.67-5.88-2.67-.64-5.4-.14-8.17 1.53-1.18.7-2.71.32-3.42-.86s-.32-2.71.86-3.42c3.93-2.36 7.9-3.05 11.9-2.09 3.19.77 6.31 2.6 9.36 5.5 3.08-2.9 6.2-4.73 9.37-5.5 3.98-.97 7.91-.27 11.84 2.09zm-59.78 249.19a1.493 1.493 0 0 1 1.29 2.69c-7.68 3.67-14.34 5.83-19.98 6.51-5.9.72-10.75-.16-14.55-2.57l-.12-.08c-3.17-2.1-7.24-2.9-12.19-2.41-5.18.52-11.31 2.45-18.39 5.79-.75.35-1.64.03-2-.71-.35-.75-.03-1.64.72-1.99 7.38-3.49 13.84-5.51 19.38-6.06 5.66-.57 10.37.4 14.13 2.89l.07.04c3.21 2.03 7.4 2.76 12.6 2.13 5.33-.65 11.67-2.71 19.04-6.23zm36.6 1c.79.26 1.21 1.1.95 1.89-.26.78-1.1 1.2-1.88.95-1.38-.46-2.84-.86-4.34-1.17-1.41-.29-2.89-.51-4.42-.63l-.03-.01c-3.09-.24-6.5.24-10.25 1.43-3.83 1.21-8.02 3.18-12.55 5.87l-.03.02c-4.76 2.89-10 4.89-15.75 6.01-5.72 1.11-11.96 1.35-18.73.73a1.492 1.492 0 0 1 .27-2.97c6.48.59 12.44.36 17.9-.7 5.4-1.05 10.31-2.92 14.76-5.63l.06-.03c4.71-2.8 9.1-4.86 13.17-6.15 4.13-1.31 7.92-1.84 11.38-1.56h.04c1.61.13 3.21.37 4.77.69 1.62.34 3.19.76 4.68 1.26zm82.47-13.71c.81.17 1.33.96 1.17 1.77-.17.8-.96 1.33-1.77 1.16-31.73-6.53-59.03-9.03-81.87-7.49-22.69 1.54-40.96 7.08-54.8 16.63-.67.47-1.61.3-2.07-.38-.47-.68-.3-1.61.38-2.08 14.29-9.86 33.05-15.58 56.29-17.15 23.1-1.57 50.66.95 82.67 7.54zm40.41 6.36c.78.3 1.17 1.16.87 1.94-.29.77-1.16 1.16-1.93.86a27.437 27.437 0 0 0-8.64-1.78h-.05c-3.1-.25-6.53.23-10.28 1.42-3.83 1.22-8.02 3.18-12.55 5.88-4.77 2.83-10.02 4.8-15.78 5.92-5.73 1.12-11.96 1.39-18.72.84-.82-.06-1.44-.78-1.37-1.61.06-.82.78-1.44 1.61-1.37 6.5.52 12.46.26 17.92-.8 5.41-1.05 10.35-2.9 14.82-5.56 4.71-2.8 9.1-4.85 13.17-6.15 4.14-1.31 7.94-1.84 11.41-1.56 1.64.08 3.25.28 4.81.6 1.65.34 3.23.81 4.71 1.37z"/><path fill="#6C78AF" fill-rule="nonzero" d="M7.41 232.07h17.75c5.33 0 9.25 1.52 11.75 4.55 2.5 3.04 3.31 7.27 2.43 12.7-.36 2.23-1 4.27-1.92 6.13-.93 1.86-2.15 3.56-3.67 5.1-1.8 1.85-3.82 3.18-6.06 3.98-2.24.8-5.1 1.2-8.58 1.2H11.2L9.23 277.9H0l7.41-45.83zm8.06 7.25-3.11 19.23h5.62c3.72 0 6.48-.76 8.27-2.29 1.8-1.52 2.98-4.05 3.55-7.59.56-3.42.24-5.83-.96-7.24-1.19-1.41-3.54-2.11-7.05-2.11h-6.32zm34.24-19.43h9.16l-1.97 12.18h8.16c5.13 0 8.68.97 10.66 2.91 1.99 1.95 2.63 5.08 1.93 9.4l-3.45 21.35h-9.3l3.28-20.32c.38-2.3.2-3.88-.54-4.71-.74-.83-2.27-1.25-4.61-1.25h-7.32l-4.24 26.28H42.3l7.41-45.84zm37.92 12.18h17.75c5.34 0 9.26 1.52 11.75 4.55 2.5 3.04 3.32 7.27 2.44 12.7-.36 2.23-1 4.27-1.93 6.13-.92 1.86-2.15 3.56-3.66 5.1-1.81 1.85-3.83 3.18-6.07 3.98-2.23.8-5.09 1.2-8.58 1.2h-7.91l-1.96 12.17h-9.24l7.41-45.83zm8.06 7.25-3.1 19.23h5.61c3.72 0 6.48-.76 8.28-2.29 1.79-1.52 2.98-4.05 3.55-7.59.55-3.42.23-5.83-.96-7.24-1.2-1.41-3.54-2.11-7.05-2.11h-6.33z"/><path fill="#F89C0E" fill-rule="nonzero" d="M135.17 210.15h17.76l7.8 42.62 21.58-42.62H200l-8.98 55.54h-11.85l7.97-43.26-21.76 43.26h-12.84l-8.18-43.71-5.85 43.71H126.2l8.97-55.54zm86.14 46.55h8.96l5.14-31.79h11.15l-6.42 39.69c-.87 5.39-2.82 9.39-5.85 11.99-3.02 2.59-7.23 3.89-12.6 3.89h-21.85l1.34-8.26h19.93c2.14 0 3.87-.5 5.18-1.5 1.3-1 2.11-2.45 2.42-4.34l.11-.69h-9.86c-6.31 0-10.62-1.2-12.91-3.61-2.3-2.4-2.99-6.41-2.08-12.03l4.06-25.14h11.02l-3.93 24.31c-.5 3.07-.35 5.09.45 6.05s2.71 1.43 5.74 1.43zm55.26-46.55h12.83l15.56 55.54H291.5l-3.15-13.22h-24.99l-7.27 13.22h-12.83l33.31-55.54zm4.17 11.03-11.87 21.38H286l-5.26-21.38zm66.23 44.51h-21.41c-6.47 0-11.22-1.84-14.25-5.52-3.03-3.68-4.02-8.8-2.95-15.38.43-2.7 1.21-5.17 2.33-7.43 1.12-2.25 2.6-4.31 4.44-6.18 2.19-2.24 4.65-3.85 7.38-4.82 2.72-.97 6.19-1.45 10.39-1.45h9.56l2.38-14.76h11.11l-8.98 55.54zm-9.69-8.74 3.76-23.26h-6.74c-4.52 0-7.87.92-10.07 2.74-2.18 1.83-3.62 4.87-4.31 9.13-.67 4.14-.27 7.07 1.18 8.8 1.46 1.72 4.31 2.59 8.54 2.59h7.64zm25.97-32.04h42.8c6.2 0 10.48 1.17 12.84 3.51 2.36 2.34 3.11 6.14 2.26 11.41l-4.18 25.86h-11.22l3.95-24.46c.48-3 .34-4.98-.45-5.94-.78-.96-2.63-1.44-5.55-1.44h-6.25l-5.14 31.84h-11.4l5.15-31.84h-13.03l-5.14 31.84h-11.23l6.59-40.78zm82.72-4.64h-11.69l1.64-10.12h11.68l-1.63 10.12zm-7.34 45.42h-11.69l6.59-40.78h11.69l-6.59 40.78zm16.23-40.78h20.97c6.33 0 10.67 1.15 13.01 3.45 2.34 2.31 3.08 6.13 2.22 11.47l-4.18 25.86h-11.15l3.97-24.54c.49-3.05.32-5.03-.51-5.94-.83-.9-2.72-1.36-5.67-1.36h-8.96l-5.15 31.84h-11.14l6.59-40.78zm0 0z"/></svg>