<svg xmlns="http://www.w3.org/2000/svg" viewBox="0 0 93 27"><path d="M36.17561 7.1131c3.29335 0 4.94935 1.91946 5.70207 3.6509l-3.27452 1.52427c-.31991-.97854-1.29846-1.82536-2.42755-1.82536-1.82553 0-3.04887 1.39254-3.04887 3.1428 0 1.75009 1.22334 3.1428 3.04887 3.1428 1.1291 0 2.10764-.84698 2.42755-1.82553l3.27452 1.50562c-.7339 1.67482-2.40872 3.66955-5.70207 3.66955-3.93316 0-6.9066-2.63455-6.9066-6.49244 0-3.87671 2.97344-6.4926 6.9066-6.4926zm12.49495.207c3.95214 0 6.88778 2.2582 6.88778 6.2668 0 4.00826-2.93564 6.2856-6.86897 6.2856h-5.6268V7.3201h5.60799zm12.15638 0l4.36598 5.94688V7.32011h3.80144v12.55238h-3.6509l-4.62943-6.36104v6.36104h-3.80144V7.32011h3.91435zm19.77807 0v2.63472l-4.1778 9.91767h-4.15898l3.97096-9.24022h-5.89042V7.32011h10.25624zm10.86627 0v2.63472l-4.1778 9.91767H83.1345l3.9708-9.24022h-5.89025V7.32011h10.25623zm-42.7819 3.31217H46.864v5.9279h1.80655c1.9008 0 3.02989-1.39255 3.02989-2.97328 0-1.6938-.97855-2.95462-3.01108-2.95462z" fill="#FFF" fill-rule="nonzero"/><g fill="#FFE326"><path d="M0 11.63766C0 5.27448 5.15845.1159 11.52176.1159c6.3633 0 11.52188 5.15858 11.52188 11.52176C23.04364 18.00096 11.52176 27 11.52176 27S0 18.00097 0 11.63766zM11.52162 4.2303c-3.87904 0-7.02329 3.14438-7.02329 7.02369 0 3.87878 3.14425 7.02355 7.0233 7.02355 3.87917 0 7.02368-3.14477 7.02368-7.02355 0-3.87931-3.14451-7.0237-7.02369-7.0237z" fill-rule="nonzero"/><path d="M11.52136 8.08525c-1.7496 0-3.16809 1.41888-3.16809 3.16861 0 1.74974 1.4185 3.16849 3.1681 3.16849 1.74985 0 3.16887-1.41875 3.16887-3.16849 0-1.74973-1.41902-3.16861-3.16888-3.16861"/></g></svg>
