<svg xmlns="http://www.w3.org/2000/svg" width="125" height="35"><path d="M3.991 19.862l.005-.004.002-.002zM22.2 12.943c.007.014.011.029.017.043l.005.008zm-4.304 10.944l-.393.008-.003.001z"/><path fill="#868e91" d="M24.537 25.076a8.207 8.207 0 0 0 .397-2.55 8.346 8.346 0 0 0-.775-3.52 8.583 8.583 0 0 0-2.307-2.858l-.017-.013a6.833 6.833 0 0 0-2.35-.976l-.045-.008c-.246-.06-4.052-.106-7.812-.121l.001-.002c-3.759-.015-7.472 0-7.532.06-.126.126-.06.798.06 1.35a5.66 5.66 0 0 0 1.834 2.753l.01.008a7.501 7.501 0 0 0 3.264 1.58l.05.01c.365.126 1.043.126 4.597.126l5.221.24a1.92 1.92 0 0 1 .37.367l.002.005c.18.24.181.307.181.979s-.066.732-.186 1.044a1.48 1.48 0 0 1-.419.362l-.007.004c-.186.12-.307.119-4.358.179-4.67 0-5.156 0-6.32.432a6.458 6.458 0 0 0-2.464 1.352c-1.163 1.038-1.84 2.202-1.96 3.426l.06.61 7.704.106 7.707-.105.49-.12c.284-.068.53-.152.765-.255l-.029.01.367-.18a7.768 7.768 0 0 0 3.484-4.241z"/><path fill="#08458e" d="M24.897 6.14c-.06-.12-1.04-.12-7.598-.12l-7.986.06a6.172 6.172 0 0 0-3.732 2.49l-.013.02a6.328 6.328 0 0 0-1.348 2.596l-.009.044-.12.553-.119.857c-.06.799-.06 1.35.12 1.47h5.276c.06 0-.186-.245-.186-.671 0-.738.252-.924.552-1.23.552-.426 2.946-.12 4.73-.246l4.848-.12c2.701-.427 5.031-2.388 5.524-4.536.121-.547.121-1.105.061-1.165z"/><path fill="#fff" d="M33.561 14.224q2.033 0 3.302.988 1.28.989 1.539 3.403h-1.966q-.18-1.112-.82-1.842-.64-.74-2.055-.74-1.931 0-2.762 1.886-.54 1.224-.54 3.02 0 1.809.764 3.044.764 1.236 2.404 1.236 1.258 0 1.987-.764.742-.775 1.022-2.111h1.966q-.337 2.392-1.685 3.504-1.347 1.1-3.448 1.1-2.358 0-3.762-1.718-1.404-1.73-1.404-4.313 0-3.167 1.539-4.93t3.92-1.763zm-.314.056zm7.233.292h1.92v2.078q.236-.607 1.157-1.471.92-.876 2.122-.876.056 0 .191.011t.46.045v2.134q-.18-.034-.336-.045-.146-.011-.326-.011-1.527 0-2.347.988-.82.977-.82 2.257V26.6h-2.022zm9.624 0v7.985q0 .921.292 1.505.539 1.078 2.01 1.078 2.112 0 2.875-1.887.416-1.01.416-2.774v-5.907h2.021V26.6H55.81l.022-1.774q-.393.685-.977 1.156-1.156.944-2.807.944-2.572 0-3.504-1.718-.505-.921-.505-2.46v-8.176zm2.774-.292zm8.4-3.066h2.044v3.358h1.92v1.651h-1.92v7.85q0 .63.427.843.236.123.786.123h.315q.168-.011.393-.034V26.6q-.349.101-.73.146-.371.045-.809.045-1.415 0-1.92-.719-.506-.73-.506-1.886v-7.963H59.65v-1.65h1.628zm5.986 3.414h2.055V26.6h-2.055zm0-4.525h2.055v2.29h-2.055zm5.11 4.469h1.92v1.707q.854-1.055 1.808-1.516.955-.46 2.123-.46 2.56 0 3.459 1.785.494.977.494 2.797V26.6h-2.055v-7.58q0-1.101-.326-1.775-.539-1.123-1.954-1.123-.719 0-1.179.146-.831.247-1.46.988-.505.596-.663 1.236-.146.629-.146 1.808v6.3h-2.021Zm4.75-.292zm8.041.348h2.056V26.6h-2.056zm0-4.525h2.056v2.29h-2.056zm4.212 14.902 7.131-8.625h-6.603v-1.808h9.321v1.651l-7.086 8.569h7.3V26.6H89.376Zm5.2-10.725Zm12.207.023q1.28 0 2.482.606 1.202.595 1.83 1.55.607.91.81 2.123.179.83.179 2.65h-8.816q.056 1.83.865 2.942.808 1.1 2.504 1.1 1.584 0 2.527-1.044.539-.606.764-1.403h1.987q-.078.662-.527 1.482-.438.809-.989 1.325-.92.899-2.28 1.213-.73.18-1.65.18-2.246 0-3.807-1.629-1.562-1.64-1.562-4.582 0-2.897 1.573-4.705 1.572-1.808 4.11-1.808zm3.223 5.323q-.123-1.314-.572-2.1-.832-1.46-2.774-1.46-1.393 0-2.336 1.01-.944 1-1 2.55zm-3.414-5.346Zm8.03.292h1.92v2.078q.236-.607 1.157-1.471.921-.876 2.123-.876.056 0 .19.011.135.011.461.045v2.134q-.18-.034-.337-.045-.146-.011-.326-.011-1.527 0-2.347.988-.82.977-.82 2.257V26.6h-2.021z"/></svg>
