<svg fill="none" xmlns="http://www.w3.org/2000/svg" viewBox="0 0 211 195"><g clip-path="url(#clip0)"><path opacity=".5" d="M151.005 32.598H38.629v150.859h112.376V32.597z" fill="url(#paint0_linear)"/><path d="M148.958 34.645H40.093v145.597h108.865V34.646z" fill="#F2F2F2"/><path d="M86.039 40.784H48.58v1.17h37.46v-1.17z" fill="#E0E0E0"/><path opacity=".7" d="M86.039 46.046H48.58v1.17h37.46v-1.17z" fill="#F89C0E"/><path d="M129.058 40.784H91.6v1.17h37.458v-1.17zm5.852 33.331H97.45v1.17h37.46v-1.17zm.879 3.215H98.331v1.169h37.458v-1.17zm1.757 3.216h-37.459v1.17h37.459v-1.17zm-2.636 45.316H97.45v1.169h37.46v-1.169zm.879 3.217H98.331v1.169h37.458v-1.169zm1.757 3.214h-37.459v1.169h37.459v-1.169z" fill="#E0E0E0"/><path opacity=".5" d="M88.673 62.126h-39.8v40.346h39.8V62.126z" fill="url(#paint1_linear)"/><path d="M88.297 63.005H49.124v38.591h39.173V63.005z" fill="#F5F5F5"/><path opacity=".5" d="M87.041 65.343H50.505v25.142H87.04V65.343z" fill="url(#paint2_linear)"/><path d="M86.788 65.636H50.755v24.266h36.033V65.636z" fill="#fff"/><path opacity=".4" d="M47.7 89.026l9.075-14.035 3.804 6.139 8.194-8.477 7.024 8.477 6.145-12.57 15.802 25.142-51.214-1.755 1.17-2.921zm7.025-17.252a2.632 2.632 0 100-5.262 2.632 2.632 0 00-2.634 2.631 2.632 2.632 0 002.634 2.631z" fill="#F89C0E"/><path opacity=".5" d="M88.673 113.875h-39.8v40.346h39.8v-40.346z" fill="url(#paint3_linear)"/><path d="M88.297 114.751H49.124v38.591h39.173v-38.591z" fill="#F5F5F5"/><path opacity=".5" d="M87.041 117.092H50.505v25.143H87.04v-25.143z" fill="url(#paint4_linear)"/><path d="M86.788 117.383H50.755v24.266h36.033v-24.266z" fill="#fff"/><path opacity=".4" d="M47.7 140.772l9.075-14.034 3.804 6.141 8.194-8.479 7.024 8.479 6.145-12.572 15.802 25.142-51.214-1.753 1.17-2.924zm7.025-17.248a2.633 2.633 0 10-2.634-2.632 2.633 2.633 0 002.634 2.632z" fill="#BDBDBD"/><path opacity=".5" d="M84.561 25.144L55.127 173.11l110.221 21.883 29.434-147.965-110.22-21.883z" fill="url(#paint5_linear)"/><path d="M85.597 27.437L57.189 170.24l106.777 21.199 28.408-142.804-106.777-21.2z" fill="#fff"/><path d="M167.827 50.613L92.047 35.57l-.227 1.146 75.778 15.045.229-1.147zm-21.562 108.395l-75.78-15.044-.227 1.146 75.778 15.045.229-1.147zm-18.537 3.174l-58.556-11.625-.229 1.146 58.557 11.626.228-1.147z" fill="#E0E0E0"/><path opacity=".7" d="M89.674 161.485l-21.814-4.331-.228 1.147 21.814 4.331.228-1.147zm38.948-111.798l-37.888-7.522-.228 1.147 37.888 7.522.228-1.147z" fill="#F89C0E"/><path d="M157.739 62.322L89.425 48.76l-.228 1.147 68.314 13.562.228-1.147z" fill="#E0E0E0"/><path opacity=".7" d="M104.759 58.661l-16.648-3.305-.228 1.147 16.647 3.305.229-1.147z" fill="#3AD29F"/><path d="M162.579 76.997L86.801 61.952l-.228 1.147 75.778 15.044.228-1.146z" fill="#E0E0E0"/><path opacity=".5" d="M93.477 89.81l-7.757 38.998 68.026 13.506 7.758-38.998L93.477 89.81z" fill="url(#paint6_linear)"/><path d="M161.029 103.517L93.863 90.183l-7.587 38.138 67.166 13.334 7.587-38.138z" fill="#fff"/><path d="M161.267 83.594L85.489 68.549l-.228 1.147 75.778 15.045.228-1.147z" fill="#E0E0E0"/><path d="M108.195 98.393L99.87 96.74l-5.533 27.816 8.325 1.652 5.533-27.815z" fill="#F89C0E"/><path d="M121.295 110.533l-8.325-1.653-3.708 18.64 8.325 1.652 3.708-18.639z" fill="#3AD29F"/><path d="M134.511 122.1l-8.324-1.653-1.997 10.035 8.325 1.653 1.996-10.035z" fill="#F55F44"/><path d="M151.491 114.74l-8.325-1.653-4.05 20.36 8.325 1.653 4.05-20.36z" fill="#FDD835"/><path d="M175.779 87.624a39.097 39.097 0 00-55.91-.42c-14.785 14.89-15.036 39.136-.574 54.342a39.099 39.099 0 0050.094 5.523l28.239 29.343a1.906 1.906 0 002.689.052l7.037-6.759a1.902 1.902 0 00.052-2.686l-28.231-29.341a39.002 39.002 0 00-3.396-50.054zm-8.796 47.178a27.966 27.966 0 01-30.563 5.45 27.925 27.925 0 01-12.334-10.525 27.896 27.896 0 01.61-31.01 27.937 27.937 0 0112.739-10.032 27.969 27.969 0 0116.172-1.271 27.95 27.95 0 0114.153 7.918 27.915 27.915 0 017.795 19.896 27.914 27.914 0 01-8.572 19.574z" fill="url(#paint7_linear)"/><path d="M126.923 106.913c-3.142 0-3.147 4.879 0 4.879 3.148 0 3.148-4.879 0-4.879z" fill="url(#paint8_linear)"/><path d="M148.828 91.284c-8.458-.19-16.154 4.048-20.246 10.447-1.336 2.088 2.456 3.933 3.784 1.855 3.388-5.297 9.826-8.662 16.79-8.487 7.297.183 13.938 4.354 17.454 10.142 1.333 2.195 4.829.2 3.508-1.983-4.275-7.01-12.555-11.766-21.29-11.974z" fill="url(#paint9_linear)"/><path d="M178.844 86.142a39.064 39.064 0 00-12.722-8.801 39.1 39.1 0 00-30.335-.228 39.069 39.069 0 00-12.853 8.608c-14.785 14.891-15.036 39.137-.574 54.343a39.099 39.099 0 0050.094 5.52l28.237 29.346a1.901 1.901 0 002.688.052l7.037-6.759a1.898 1.898 0 00.053-2.686l-28.24-29.343a39.003 39.003 0 00-3.385-50.052zm-8.796 47.158a27.966 27.966 0 01-30.563 5.45 27.933 27.933 0 01-12.335-10.525 27.89 27.89 0 01.611-31.01A27.938 27.938 0 01140.5 87.184a27.966 27.966 0 0130.325 6.647 27.899 27.899 0 01-.777 39.47z" fill="#F89C0E"/><path d="M129.988 105.428c-3.142 0-3.147 4.88 0 4.88s3.147-4.88 0-4.88zm21.904-15.626c-8.457-.19-16.153 4.048-20.245 10.447-1.336 2.088 2.456 3.933 3.784 1.855 3.388-5.297 9.826-8.662 16.79-8.487 7.297.183 13.938 4.354 17.454 10.142 1.333 2.195 4.829.2 3.508-1.983-4.283-7.03-12.552-11.786-21.291-11.974z" fill="#F89C0E"/><path d="M31.312 166.208h-.877v4.969h.877v-4.969z" fill="#47E6B1"/><path d="M33.361 169.129v-.876h-4.974v.876h4.974z" fill="#47E6B1"/><path d="M143.307 1.99a1.072 1.072 0 01-.599-1.299.539.539 0 00-1.007-.373 1.076 1.076 0 01-1.301.598.538.538 0 00-.368 1.011 1.072 1.072 0 01.599 1.3.54.54 0 001.015.368 1.072 1.072 0 011.3-.598.54.54 0 00.479-.946.521.521 0 00-.118-.06z" fill="#4D8AF0"/><path d="M34.442 38.829a1.075 1.075 0 01-.6-1.3.538.538 0 00-1.007-.373 1.074 1.074 0 01-1.3.599.538.538 0 00-.373 1.006 1.074 1.074 0 01.598 1.3.538.538 0 001.007.373 1.074 1.074 0 011.301-.599.54.54 0 00.479-.946.516.516 0 00-.105-.06zm154.811 152.025a1.073 1.073 0 01-.598-1.299.54.54 0 00-.669-.673.545.545 0 00-.339.3 1.07 1.07 0 01-1.3.598.549.549 0 00-.45.063.534.534 0 00-.224.605.545.545 0 00.3.339c.242.105.437.296.548.535.11.24.128.512.051.764a.537.537 0 001.007.373 1.077 1.077 0 011.301-.598.54.54 0 00.674-.668.526.526 0 00-.301-.339z" fill="#FDD835"/><path d="M80.478 20.614a1.756 1.756 0 10.002-3.512 1.756 1.756 0 00-.002 3.512zm125.838 21.925a1.756 1.756 0 10.003-3.511 1.756 1.756 0 00-.003 3.51z" fill="#F55F44"/><path d="M196.368 94.871a1.755 1.755 0 10-1.757-1.754c0 .969.787 1.754 1.757 1.754z" fill="#4D8AF0"/><path opacity=".5" d="M1.757 8.917a1.756 1.756 0 10.001-3.511 1.756 1.756 0 00-.001 3.511z" fill="#47E6B1"/></g><defs><linearGradient id="paint0_linear" x1="94.817" y1="183.457" x2="94.817" y2="32.598" gradientUnits="userSpaceOnUse"><stop stop-color="gray" stop-opacity=".25"/><stop offset=".54" stop-color="gray" stop-opacity=".12"/><stop offset="1" stop-color="gray" stop-opacity=".1"/></linearGradient><linearGradient id="paint1_linear" x1="10971.4" y1="16576.5" x2="10971.4" y2="10074.4" gradientUnits="userSpaceOnUse"><stop stop-color="gray" stop-opacity=".25"/><stop offset=".54" stop-color="gray" stop-opacity=".12"/><stop offset="1" stop-color="gray" stop-opacity=".1"/></linearGradient><linearGradient id="paint2_linear" x1="10077.6" y1="9152.78" x2="10077.6" y2="6627.74" gradientUnits="userSpaceOnUse"><stop stop-color="gray" stop-opacity=".25"/><stop offset=".54" stop-color="gray" stop-opacity=".12"/><stop offset="1" stop-color="gray" stop-opacity=".1"/></linearGradient><linearGradient id="paint3_linear" x1="10971.4" y1="24968.1" x2="10971.4" y2="18466" gradientUnits="userSpaceOnUse"><stop stop-color="gray" stop-opacity=".25"/><stop offset=".54" stop-color="gray" stop-opacity=".12"/><stop offset="1" stop-color="gray" stop-opacity=".1"/></linearGradient><linearGradient id="paint4_linear" x1="10077.6" y1="14401.7" x2="10077.6" y2="11876.7" gradientUnits="userSpaceOnUse"><stop stop-color="gray" stop-opacity=".25"/><stop offset=".54" stop-color="gray" stop-opacity=".12"/><stop offset="1" stop-color="gray" stop-opacity=".1"/></linearGradient><linearGradient id="paint5_linear" x1="85295" y1="104632" x2="98469.5" y2="38273.6" gradientUnits="userSpaceOnUse"><stop stop-color="gray" stop-opacity=".25"/><stop offset=".54" stop-color="gray" stop-opacity=".12"/><stop offset="1" stop-color="gray" stop-opacity=".1"/></linearGradient><linearGradient id="paint6_linear" x1="19283.6" y1="44053.7" x2="21426.6" y2="33259.6" gradientUnits="userSpaceOnUse"><stop stop-color="gray" stop-opacity=".25"/><stop offset=".54" stop-color="gray" stop-opacity=".12"/><stop offset="1" stop-color="gray" stop-opacity=".1"/></linearGradient><linearGradient id="paint7_linear" x1="158.275" y1="176.995" x2="158.275" y2="75.647" gradientUnits="userSpaceOnUse"><stop stop-color="#B3B3B3" stop-opacity=".25"/><stop offset=".54" stop-color="#B3B3B3" stop-opacity=".1"/><stop offset="1" stop-color="#B3B3B3" stop-opacity=".05"/></linearGradient><linearGradient id="paint8_linear" x1="126.923" y1="111.79" x2="126.923" y2="106.913" gradientUnits="userSpaceOnUse"><stop stop-opacity=".12"/><stop offset=".55" stop-opacity=".09"/><stop offset="1" stop-opacity=".02"/></linearGradient><linearGradient id="paint9_linear" x1="32762.9" y1="7321.48" x2="32762.9" y2="6432.79" gradientUnits="userSpaceOnUse"><stop stop-opacity=".12"/><stop offset=".55" stop-opacity=".09"/><stop offset="1" stop-opacity=".02"/></linearGradient><clipPath id="clip0"><path fill="#fff" d="M0 0h211v195H0z"/></clipPath></defs></svg>