<svg fill="none" xmlns="http://www.w3.org/2000/svg" viewBox="0 0 202 169"><path d="M91.838 0H0v102.712h91.838V0z" fill="url(#paint0_linear)"/><path d="M90.319 68.577H1.517v31.898H90.32V68.577z" fill="#fff"/><path d="M12.247 76.143h-3.44v16.345h3.44V76.143z" fill="#64FFDA"/><path opacity=".7" d="M19.04 76.143H15.6v16.345h3.44V76.143z" fill="#64FFDA"/><path opacity=".6" d="M25.835 76.143h-3.44v16.345h3.44V76.143z" fill="#64FFDA"/><path opacity=".5" d="M32.628 76.143h-3.44v16.345h3.44V76.143zm6.793 0h-3.44v16.345h3.44V76.143z" fill="#64FFDA"/><path opacity=".4" d="M46.214 76.143h-3.44v16.345h3.44V76.143z" fill="#64FFDA"/><path opacity=".3" d="M53.01 76.143h-3.442v16.345h3.441V76.143z" fill="#64FFDA"/><path d="M77.748 92.53c4.585 0 8.303-3.725 8.303-8.32 0-4.595-3.718-8.32-8.303-8.32-4.586 0-8.304 3.725-8.304 8.32 0 4.595 3.718 8.32 8.304 8.32z" fill="#F89C0E"/><path d="M90.319 35.436H1.517v31.898H90.32V35.436z" fill="#fff"/><path d="M12.247 43.002h-3.44v16.345h3.44V43.002z" fill="#64FFDA"/><path opacity=".7" d="M19.04 43.002H15.6v16.345h3.44V43.002z" fill="#64FFDA"/><path opacity=".6" d="M25.835 43.002h-3.44v16.345h3.44V43.002z" fill="#64FFDA"/><path opacity=".5" d="M32.628 43.002h-3.44v16.345h3.44V43.002zm6.793 0h-3.44v16.345h3.44V43.002z" fill="#64FFDA"/><path opacity=".4" d="M46.214 43.002h-3.44v16.345h3.44V43.002z" fill="#64FFDA"/><path opacity=".3" d="M53.01 43.002h-3.442v16.345h3.441V43.002z" fill="#64FFDA"/><path d="M77.748 59.392c4.585 0 8.303-3.725 8.303-8.32 0-4.596-3.718-8.321-8.303-8.321-4.586 0-8.304 3.725-8.304 8.32 0 4.596 3.718 8.32 8.304 8.32z" fill="#F89C0E"/><path d="M90.319 2.295H1.517v31.898H90.32V2.295z" fill="#fff"/><path d="M12.247 9.863h-3.44V26.21h3.44V9.863z" fill="#64FFDA"/><path opacity=".7" d="M19.04 9.863H15.6V26.21h3.44V9.863z" fill="#64FFDA"/><path opacity=".6" d="M25.835 9.863h-3.44V26.21h3.44V9.863z" fill="#64FFDA"/><path opacity=".5" d="M32.628 9.863h-3.44V26.21h3.44V9.863zm6.793 0h-3.44V26.21h3.44V9.863z" fill="#64FFDA"/><path opacity=".4" d="M46.214 9.863h-3.44V26.21h3.44V9.863z" fill="#64FFDA"/><path opacity=".3" d="M53.01 9.863h-3.442V26.21h3.441V9.863z" fill="#64FFDA"/><path d="M77.748 26.9c4.943 0 8.951-4.015 8.951-8.97 0-4.953-4.008-8.97-8.951-8.97-4.944 0-8.952 4.017-8.952 8.97 0 4.954 4.008 8.97 8.952 8.97z" fill="url(#paint1_linear)"/><path d="M77.748 60.263c4.943 0 8.951-4.016 8.951-8.97 0-4.954-4.008-8.97-8.951-8.97-4.944 0-8.952 4.016-8.952 8.97 0 4.954 4.008 8.97 8.952 8.97z" fill="url(#paint2_linear)"/><path d="M77.748 93.401c4.943 0 8.951-4.015 8.951-8.97 0-4.953-4.008-8.97-8.951-8.97-4.944 0-8.952 4.017-8.952 8.97 0 4.955 4.008 8.97 8.952 8.97z" fill="url(#paint3_linear)"/><path d="M77.748 26.251c4.585 0 8.303-3.725 8.303-8.32 0-4.596-3.718-8.32-8.303-8.32-4.586 0-8.304 3.724-8.304 8.32 0 4.595 3.718 8.32 8.304 8.32z" fill="#F89C0E"/><g opacity=".7" stroke="#F89C0E" stroke-width="4" stroke-linecap="round" stroke-linejoin="round"><path opacity=".7" d="M103.011 35.528h1.341"/><path opacity=".7" d="M111.811 35.528h37.3" stroke-dasharray="12.52 33.38"/><path opacity=".7" d="M152.841 35.528h1.34v1.343"/><path opacity=".7" d="M154.181 43.994v25.814" stroke-dasharray="11.93 31.8"/><path opacity=".7" d="M154.181 73.368v1.344"/></g><g opacity=".7" stroke="#F89C0E" stroke-width="4" stroke-linecap="round" stroke-linejoin="round"><path opacity=".7" d="M82.136 136.959l-1.34-.007"/><path opacity=".7" d="M73.337 136.916l-37.299-.179" stroke-dasharray="12.52 33.38"/><path opacity=".7" d="M32.307 136.721l-1.341-.006.009-1.344"/><path opacity=".7" d="M31.02 128.477l.102-15.51" stroke-dasharray="11.55 30.79"/><path opacity=".7" d="M31.145 109.519l.009-1.344"/></g><path d="M161.155 141.166s2.664 18.02 18.384 24.028h-63.684c15.72-6.008 18.383-24.028 18.383-24.028h26.917z" fill="#E0E0E0"/><path d="M179.82 165.194h-64.276V169h64.276v-3.806z" fill="url(#paint4_linear)"/><path d="M179.539 165.194h-63.675v2.937h63.675v-2.937z" fill="#F5F5F5"/><path d="M199.598 77.11H96.252a2.4 2.4 0 00-1.699.705 2.41 2.41 0 00-.703 1.702v65.245c0 .763.302 1.496.841 2.036a2.87 2.87 0 002.032.843h102.403a2.863 2.863 0 002.032-.843 2.87 2.87 0 00.842-2.036V79.517a2.408 2.408 0 00-2.402-2.407z" fill="url(#paint5_linear)"/><path d="M97.552 78.095H197.85a2.408 2.408 0 012.403 2.407v55.859H95.15V80.504a2.413 2.413 0 011.482-2.226c.292-.12.605-.183.92-.183z" fill="#fff"/><path d="M197.379 145.971H98.024a2.87 2.87 0 01-2.032-.843 2.884 2.884 0 01-.842-2.037v-6.73h105.103v6.73c0 .764-.303 1.497-.842 2.037a2.87 2.87 0 01-2.032.843z" fill="#F5F5F5"/><path d="M195.457 82.815h-95.112v47.034h95.112V82.815z" fill="#F89C0E"/><path opacity=".2" d="M104.108 85.936h91.41V82.8h-95.112v47.035h3.702V85.936z" fill="#fff"/><defs><linearGradient id="paint0_linear" x1="45.919" y1="102.712" x2="45.919" y2="0" gradientUnits="userSpaceOnUse"><stop stop-color="gray" stop-opacity=".25"/><stop offset=".54" stop-color="gray" stop-opacity=".12"/><stop offset="1" stop-color="gray" stop-opacity=".1"/></linearGradient><linearGradient id="paint1_linear" x1="6297.94" y1="2164.23" x2="6297.94" y2="726.904" gradientUnits="userSpaceOnUse"><stop stop-color="gray" stop-opacity=".25"/><stop offset=".54" stop-color="gray" stop-opacity=".12"/><stop offset="1" stop-color="gray" stop-opacity=".1"/></linearGradient><linearGradient id="paint2_linear" x1="6297.94" y1="4870.59" x2="6297.94" y2="3433.27" gradientUnits="userSpaceOnUse"><stop stop-color="gray" stop-opacity=".25"/><stop offset=".54" stop-color="gray" stop-opacity=".12"/><stop offset="1" stop-color="gray" stop-opacity=".1"/></linearGradient><linearGradient id="paint3_linear" x1="6297.94" y1="7558.79" x2="6297.94" y2="6121.47" gradientUnits="userSpaceOnUse"><stop stop-color="gray" stop-opacity=".25"/><stop offset=".54" stop-color="gray" stop-opacity=".12"/><stop offset="1" stop-color="gray" stop-opacity=".1"/></linearGradient><linearGradient id="paint4_linear" x1="42596" y1="3038.19" x2="42596" y2="2973.48" gradientUnits="userSpaceOnUse"><stop stop-color="gray" stop-opacity=".25"/><stop offset=".54" stop-color="gray" stop-opacity=".12"/><stop offset="1" stop-color="gray" stop-opacity=".1"/></linearGradient><linearGradient id="paint5_linear" x1="87695.7" y1="51706.1" x2="87695.7" y2="29488.7" gradientUnits="userSpaceOnUse"><stop stop-color="gray" stop-opacity=".25"/><stop offset=".54" stop-color="gray" stop-opacity=".12"/><stop offset="1" stop-color="gray" stop-opacity=".1"/></linearGradient></defs></svg>