<svg fill="none" xmlns="http://www.w3.org/2000/svg" viewBox="0 0 382 382">
  <circle cx="191" cy="191" r="191" fill="#fff"/>
  <path d="M80.8885 138.666h8.4677v72.128h-8.4677v-72.128zM170.07 260.884l-.546-8.451c32.909-2.125 46.847-9.555 46.847-12.155V138.666h8.468v101.612c0 15.839-41.919 19.776-54.769 20.606z" fill="#000"/>
  <path d="M174.033 273.205v-31.987l-11.863-3.019c-.504-1.346-1.067-2.705-1.694-4.047l6.266-10.538-22.617-22.618-10.538 6.262c-1.342-.622-2.697-1.189-4.048-1.693l-3.022-11.859H94.5299l-3.0187 11.863c-1.3506.504-2.7054 1.071-4.0476 1.694l-10.538-6.262-22.6171 22.617 6.2661 10.538c-.6224 1.342-1.1897 2.701-1.6936 4.047l-11.8632 3.019v31.987l11.8632 3.018c.5039 1.347 1.067 2.706 1.6936 4.048l-6.2661 10.538 22.6171 22.617 10.538-6.262c1.3422.623 2.697 1.19 4.0476 1.694l3.0229 11.859h31.9869l3.018-11.863c1.351-.504 2.706-1.072 4.048-1.694l10.538 6.262 22.617-22.617-6.266-10.538c.622-1.342 1.19-2.701 1.694-4.048l11.863-3.018zm-63.508 17.879c-18.7048 0-33.8703-15.166-33.8703-33.871 0-18.705 15.1655-33.87 33.8703-33.87 18.705 0 33.871 15.165 33.871 33.87s-15.166 33.871-33.871 33.871z" fill="#6C78AF"/>
  <path d="M110.525 295.318c-21.0079 0-38.1042-17.092-38.1042-38.105 0-21.012 17.0963-38.104 38.1042-38.104 21.009 0 38.105 17.092 38.105 38.104 0 21.013-17.096 38.105-38.105 38.105zm0-67.742c-16.3423 0-29.6365 13.299-29.6365 29.637 0 16.339 13.2942 29.637 29.6365 29.637 16.343 0 29.637-13.298 29.637-29.637 0-16.338-13.294-29.637-29.637-29.637z" fill="#000"/>
  <path d="M110.525 278.382c-11.6724 0-21.1689-9.496-21.1689-21.169 0-11.672 9.4965-21.169 21.1689-21.169 11.673 0 21.169 9.497 21.169 21.169 0 11.673-9.496 21.169-21.169 21.169zm0-33.87c-7.002 0-12.7012 5.699-12.7012 12.701 0 7.003 5.6992 12.702 12.7012 12.702 7.003 0 12.702-5.699 12.702-12.702 0-7.002-5.699-12.701-12.702-12.701z" fill="#000"/>
  <path d="M258.71 248.746h33.87v16.935h-33.87v-16.935z" fill="#F0BC5E"/>
  <path d="M258.71 79.3923h33.87v50.8057h-33.87V79.3923z" fill="#F89C0E"/>
  <path d="M152.864 159.835c24.895 0 71.975-4.424 71.975-21.169s-47.08-21.169-71.975-21.169c-24.895 0-71.9755 4.424-71.9755 21.169s47.0805 21.169 71.9755 21.169zm0-33.871c41.254 0 63.507 9.014 63.507 12.702 0 3.688-22.253 12.701-63.507 12.701-41.255 0-63.5078-9.013-63.5078-12.701 0-3.688 22.2528-12.702 63.5078-12.702zM200.554 172.583c2.963-.618 5.825-1.325 8.518-2.1l-2.337-8.137c-2.49.715-5.157 1.367-7.922 1.952l1.741 8.285zM166.234 176.504c2.807-.11 5.678-.271 8.591-.483l-.61-8.442c-2.82.203-5.606.355-8.324.466l.343 8.459zM183.415 175.242c2.866-.313 5.737-.682 8.578-1.118l-1.283-8.37c-2.722.419-5.47.771-8.214 1.067l.919 8.421zM198.813 232.28l1.741 8.286c2.997-.627 5.863-1.334 8.518-2.096l-2.337-8.137c-2.456.703-5.119 1.363-7.922 1.947zM182.5 234.812l.919 8.417c2.867-.313 5.737-.682 8.578-1.118l-1.283-8.37c-2.722.423-5.47.775-8.214 1.071z" fill="#000"/>
  <path d="M224.839 172.537h-8.468c0 3.687-22.253 12.701-63.507 12.701-41.255 0-63.5078-9.014-63.5078-12.701h-8.4677c0 16.744 47.0805 21.169 71.9755 21.169 24.895 0 71.975-4.425 71.975-21.169zM163.097 219.973l3.645 3.645-2.853 4.801c29.797-1.156 60.95-8.4 60.95-22.012h-8.468c0 3.557-18.146 12.3-53.274 13.566z" fill="#000"/>
  <path d="M309.515 151.367V58.2231h-67.741v93.1439h29.637v21.771c-5.923 1.541-10.559 6.177-12.1 12.1h-38.706v8.468h38.706c1.541 5.923 6.177 10.559 12.1 12.1v21.77h-29.637v93.145h67.741v-93.145h-29.636v-21.77c7.282-1.892 12.701-8.463 12.701-16.334s-5.419-14.442-12.701-16.334v-21.771h29.636zm-8.467 160.886h-50.806v-76.209h50.806v76.209zm-16.936-122.781c0 4.67-3.797 8.468-8.467 8.468s-8.468-3.798-8.468-8.468 3.798-8.468 8.468-8.468 8.467 3.798 8.467 8.468zm-33.87-122.7812h50.806V142.9h-50.806V66.6908z" fill="#000"/>
  <path d="M258.71 244.512h33.87v8.467h-33.87v-8.467zM292.58 278.382h-33.87v25.403h33.87v-25.403zm-8.467 16.936h-16.936v-8.468h16.936v8.468zM258.71 75.1585h33.87v8.4676h-33.87v-8.4676zM258.71 92.0938h33.87v8.4672h-33.87v-8.4672zM258.71 109.029h33.87v8.468h-33.87v-8.468zM258.71 125.964h33.87v8.468h-33.87v-8.468zM258.71 261.447h33.87v8.468h-33.87v-8.468zM174.033 134.432h8.467v8.468h-8.467v-8.468zM157.097 134.432h8.468v8.468h-8.468v-8.468zM190.968 134.432h8.468v8.468h-8.468v-8.468zM106.292 134.432h8.467v8.468h-8.467v-8.468zM123.227 134.432h8.467v8.468h-8.467v-8.468zM140.162 134.432h8.468v8.468h-8.468v-8.468z" fill="#000"/>
</svg>
