<svg fill="none" xmlns="http://www.w3.org/2000/svg" viewBox="0 0 199 172"><g clip-path="url(#clip0)"><path d="M48.493 27.789c-5.528 0-9.552 4.124-10.909 10.011l-1.682 8.833H37.1l2.593-7.23-.546 7.23h1.343l.998-3.725-.21 3.725H57.44V37.62c0-5.43-4.006-9.831-8.948-9.831zm-7.306 47.412S33.01 86.549 33.41 91.128c.4 4.578 5.584 79.234 5.584 79.234l12.166.597-3.59-53.752 2.992-14.533 7.379 67.688 14.958.398-13.363-87.795-2.592-7.764H41.187z" fill="#2F2E41"/><path d="M43.98 40.561s2.592 4.778-.798 7.963c-3.39 3.185-4.986 11.746-4.986 11.746l19.146-1.394-1.596-10.75s-4.188-2.588-3.19-7.167l-8.577-.398z" fill="#FFB8B8"/><path d="M40.788 53.302s1.197 3.584 6.382 3.185a17.814 17.814 0 008.776-3.185v23.293l-15.955-.598V61.863l.797-8.56z" fill="#F89C0E"/><path d="M41.786 76.595l1.196-3.982s-.399-9.357-1.994-13.14c0 0 3.048-9.97 3.519-12.848l-1.525 1.103-9.174 4.38L37 68.63l2.194 3.584-2.273 9.415 4.866-5.035zm7.778-.797l4.587-24.885-1.26-6.171 3.653 3.583 7.18 2.19-3.39 18.714-1.995 3.981.986 8.934-9.761-6.346z" fill="#3F3D56"/><path d="M67.912 92.521s1.994 8.561-1.995 9.556c-3.988.995-2.592-9.556-2.592-9.556h4.587zm-35.179-8.885s7.68 4.299 5.729 7.91c-1.952 3.613-8.82-4.527-8.82-4.527l3.091-3.383z" fill="#FFB8B8"/><path d="M60.732 50.913l2.992-.398s1.795 2.389 1.994 4.18c.2 1.792 3.39 32.053 3.39 32.053.23.66.003 1.309-.2 6.768l-.597 2.39s-1.197-4.58-5.784-2.19l-.598-2.787S60.732 80.376 60.732 75.4s-.399-10.352-.399-10.352l.399-14.135z" fill="#3F3D56"/><path d="M46.284 171.723c1.566 0 2.836-.475 2.836-1.061s-1.27-1.062-2.836-1.062c-1.566 0-2.836.476-2.836 1.062 0 .586 1.27 1.061 2.836 1.061zm19.143 0c1.566 0 2.835-.475 2.835-1.061s-1.27-1.062-2.835-1.062c-1.567 0-2.837.476-2.837 1.062 0 .586 1.27 1.061 2.837 1.061z" fill="#2F2E41"/><path d="M36.002 51.909l-2.194.199-4.986 19.31s-.605 25.075 4.388 20.307c0 0-1.795-5.176 2.792-6.968V74.206l1.595-9.158-1.595-13.14z" fill="#3F3D56"/><path d="M55.148 39.665c.165 0 .299-.446.299-.995 0-.55-.134-.996-.3-.996-.164 0-.298.446-.298.996s.134.995.299.995zm-13.562 0c.165 0 .3-.446.3-.995 0-.55-.135-.996-.3-.996-.165 0-.299.446-.299.996s.134.995.3.995z" fill="#FFB8B8"/><path d="M48.367 44.742c3.635 0 6.581-2.942 6.581-6.57s-2.946-6.57-6.581-6.57c-3.635 0-6.581 2.942-6.581 6.57s2.946 6.57 6.581 6.57z" fill="#FFB8B8"/><path d="M45.475 34.688l-.168 1.593h4.556l.598-1.195-.126 1.195h5.511l-3.79-5.973-8.376.2-1.994 5.773h2.992l.797-1.593z" fill="#2F2E41"/><path d="M145.691 109.49c-29.395 0-53.309-23.872-53.309-53.214s23.914-53.214 53.309-53.214C175.086 3.062 199 26.934 199 56.276s-23.914 53.214-53.309 53.214zm0-105.914c-29.111 0-52.794 23.641-52.794 52.7 0 29.059 23.683 52.7 52.794 52.7 29.111 0 52.794-23.641 52.794-52.7 0-29.059-23.683-52.7-52.794-52.7z" fill="#E6E6E6"/><path d="M145.691 94.58c-21.159 0-38.372-17.183-38.372-38.304 0-21.12 17.213-38.304 38.372-38.304s38.372 17.183 38.372 38.304c0 21.121-17.213 38.304-38.372 38.304zm0-76.094c-20.874 0-37.857 16.953-37.857 37.79s16.983 37.79 37.857 37.79 37.857-16.953 37.857-37.79-16.983-37.79-37.857-37.79z" fill="#E6E6E6"/><path d="M145.691 79.5c-4.602 0-9.1-1.362-12.926-3.913a23.234 23.234 0 01-8.569-10.423 23.192 23.192 0 015.044-25.31 23.274 23.274 0 0111.912-6.356 23.303 23.303 0 0113.442 1.322 23.258 23.258 0 0110.442 8.553 23.199 23.199 0 013.921 12.903 23.233 23.233 0 01-6.822 16.414 23.315 23.315 0 01-16.444 6.81zm0-45.934c-4.5 0-8.898 1.332-12.64 3.827a22.72 22.72 0 00-8.379 10.192 22.68 22.68 0 004.932 24.75 22.786 22.786 0 0024.793 4.923 22.74 22.74 0 0010.211-8.365 22.68 22.68 0 003.834-12.617 22.717 22.717 0 00-6.671-16.051 22.797 22.797 0 00-16.08-6.66z" fill="#E6E6E6"/><path d="M145.691 68.069c6.525 0 11.814-5.28 11.814-11.793 0-6.513-5.289-11.793-11.814-11.793s-11.814 5.28-11.814 11.793c0 6.513 5.289 11.793 11.814 11.793zm8.452-60.591a3.743 3.743 0 003.746-3.739A3.743 3.743 0 00154.143 0a3.743 3.743 0 00-3.746 3.74 3.743 3.743 0 003.746 3.738zm-46.968 88.878a3.743 3.743 0 003.746-3.74 3.743 3.743 0 00-3.746-3.738 3.742 3.742 0 00-3.745 3.739 3.742 3.742 0 003.745 3.739z" fill="#F89C0E"/><path d="M107.69 64.222a3.743 3.743 0 003.746-3.74 3.743 3.743 0 00-3.746-3.739 3.742 3.742 0 00-3.745 3.74 3.742 3.742 0 003.745 3.739zm70.049-25.193a3.743 3.743 0 003.746-3.74 3.743 3.743 0 00-3.746-3.739 3.743 3.743 0 00-3.746 3.74 3.743 3.743 0 003.746 3.739zm14.679 46.53a3.743 3.743 0 003.746-3.74 3.743 3.743 0 00-3.746-3.739 3.743 3.743 0 00-3.746 3.74 3.743 3.743 0 003.746 3.739z" fill="#E6E6E6"/><path d="M181.516 69.031a3.743 3.743 0 003.746-3.74 3.743 3.743 0 00-3.746-3.738 3.743 3.743 0 00-3.746 3.739 3.743 3.743 0 003.746 3.74zm-82.12-35.666a3.742 3.742 0 003.745-3.74 3.742 3.742 0 00-3.745-3.738 3.742 3.742 0 00-3.746 3.739 3.743 3.743 0 003.746 3.739zm60.221 77.948a3.742 3.742 0 003.746-3.739 3.743 3.743 0 00-3.746-3.74 3.742 3.742 0 00-3.745 3.74 3.742 3.742 0 003.745 3.739z" fill="#F89C0E"/><path d="M2.408 166.433c3.714 4.965 11.423 5.487 11.423 5.487s1.687-7.526-2.026-12.49C8.09 154.465.383 153.943.383 153.943s-1.688 7.526 2.025 12.49z" fill="#E6E6E6"/><path d="M21.326 168.3c-2.45 3.275-7.537 3.62-7.537 3.62s-1.114-4.966 1.337-8.242c2.45-3.276 7.537-3.621 7.537-3.621s1.113 4.967-1.337 8.243z" fill="#E6E6E6"/><path d="M173.106 171.424h-171V172h171v-.576z" fill="#3F3D56"/></g><defs><clipPath id="clip0"><path fill="#fff" d="M0 0h199v172H0z"/></clipPath></defs></svg>