<svg fill="none" xmlns="http://www.w3.org/2000/svg" viewBox="0 0 149 171"><g clip-path="url(#clip0)"><path d="M76.952 62.754h-2.125v1.416h2.125v-1.416zm2.834 0H77.66v1.416h2.126v-1.416zm2.835 0h-2.125v1.416h2.125v-1.416zm2.833 0H83.33v1.416h2.125v-1.416zm2.836 0h-2.126v1.416h2.126v-1.416zm2.835 0H89v1.416h2.125v-1.416zm2.833 0h-2.125v1.416h2.125v-1.416zm2.836 0h-2.126v1.416h2.126v-1.416zm2.833 0H97.5v1.416h2.126v-1.416zm2.835 0h-2.125v1.416h2.125v-1.416z" fill="#B0BEC5"/><path d="M149 63.737H57.55v101.947H149V63.737z" fill="url(#paint0_linear)"/><path d="M147.49 131.802H59.061v31.662h88.429v-31.662z" fill="#ECEFF1"/><path d="M69.745 139.313h-3.427v16.223h3.427v-16.223z" fill="#64FFDA"/><path opacity=".7" d="M76.51 139.313h-3.427v16.223h3.427v-16.223z" fill="#64FFDA"/><path opacity=".6" d="M83.275 139.313h-3.427v16.223h3.427v-16.223z" fill="#64FFDA"/><path opacity=".5" d="M90.04 139.313h-3.427v16.223h3.427v-16.223zm6.765 0h-3.426v16.223h3.426v-16.223z" fill="#64FFDA"/><path opacity=".4" d="M103.57 139.313h-3.426v16.223h3.426v-16.223z" fill="#64FFDA"/><path opacity=".3" d="M110.333 139.313h-3.427v16.223h3.427v-16.223z" fill="#64FFDA"/><path d="M134.969 155.579c4.566 0 8.268-3.698 8.268-8.259s-3.702-8.258-8.268-8.258c-4.567 0-8.268 3.697-8.268 8.258 0 4.561 3.701 8.259 8.268 8.259z" fill="#F89C0E"/><path d="M147.49 98.908H59.061v31.662h88.429V98.908z" fill="#ECEFF1"/><path d="M69.745 106.419h-3.427v16.223h3.427v-16.223z" fill="#64FFDA"/><path opacity=".7" d="M76.51 106.419h-3.427v16.223h3.427v-16.223z" fill="#64FFDA"/><path opacity=".6" d="M83.275 106.419h-3.427v16.223h3.427v-16.223z" fill="#64FFDA"/><path opacity=".5" d="M90.04 106.419h-3.427v16.223h3.427v-16.223zm6.765 0h-3.426v16.223h3.426v-16.223z" fill="#64FFDA"/><path opacity=".4" d="M103.57 106.419h-3.426v16.223h3.426v-16.223z" fill="#64FFDA"/><path opacity=".3" d="M110.333 106.419h-3.427v16.223h3.427v-16.223z" fill="#64FFDA"/><path d="M134.969 122.687c4.566 0 8.268-3.697 8.268-8.258 0-4.561-3.702-8.259-8.268-8.259-4.567 0-8.268 3.698-8.268 8.259s3.701 8.258 8.268 8.258z" fill="#F89C0E"/><path d="M147.49 66.017H59.061v31.662h88.429V66.017z" fill="#ECEFF1"/><path d="M69.745 73.525h-3.427v16.223h3.427V73.525z" fill="#64FFDA"/><path opacity=".7" d="M76.51 73.525h-3.427v16.223h3.427V73.525z" fill="#64FFDA"/><path opacity=".6" d="M83.275 73.525h-3.427v16.223h3.427V73.525z" fill="#64FFDA"/><path opacity=".5" d="M90.04 73.525h-3.427v16.223h3.427V73.525zm6.765 0h-3.426v16.223h3.426V73.525z" fill="#64FFDA"/><path opacity=".4" d="M103.57 73.525h-3.426v16.223h3.426V73.525z" fill="#64FFDA"/><path opacity=".3" d="M110.333 73.525h-3.427v16.223h3.427V73.525z" fill="#64FFDA"/><path d="M134.969 90.437c4.922 0 8.913-3.986 8.913-8.902 0-4.917-3.991-8.903-8.913-8.903-4.923 0-8.913 3.986-8.913 8.903 0 4.916 3.99 8.902 8.913 8.902z" fill="url(#paint1_linear)"/><path d="M134.969 123.551c4.922 0 8.913-3.986 8.913-8.902 0-4.917-3.991-8.903-8.913-8.903-4.923 0-8.913 3.986-8.913 8.903 0 4.916 3.99 8.902 8.913 8.902z" fill="url(#paint2_linear)"/><path d="M134.969 156.443c4.922 0 8.913-3.986 8.913-8.903 0-4.916-3.991-8.902-8.913-8.902-4.923 0-8.913 3.986-8.913 8.902 0 4.917 3.99 8.903 8.913 8.903z" fill="url(#paint3_linear)"/><path d="M134.969 89.793c4.566 0 8.268-3.698 8.268-8.258 0-4.561-3.702-8.259-8.268-8.259-4.567 0-8.268 3.698-8.268 8.259 0 4.56 3.701 8.258 8.268 8.258z" fill="#F89C0E"/><path d="M106.006 67.473h-32.66a1.124 1.124 0 01-1.123-1.122v-1.777a1.121 1.121 0 011.123-1.122h32.66v4.021z" fill="url(#paint4_linear)"/><path d="M106.006 67H73.937a1.124 1.124 0 01-1.123-1.122v-1.07a1.121 1.121 0 011.123-1.123h32.069V67z" fill="#B0BEC5"/><path d="M22.78 45.605l23.591 20.843 27.411-5.783-2.123-6.17L50.418 57 29.166 38.374a4.83 4.83 0 00-7.127.84 4.818 4.818 0 00.741 6.39z" fill="url(#paint5_linear)"/><path d="M73.769 60.665s6.992.193 9.575-3.663c2.584-3.855-11.699-2.506-11.699-2.506l2.124 6.169z" fill="url(#paint6_linear)"/><path d="M19.686 32.019c6.716 0 12.16-5.438 12.16-12.145 0-6.708-5.444-12.145-12.16-12.145-6.715 0-12.16 5.437-12.16 12.145 0 6.707 5.445 12.145 12.16 12.145z" fill="url(#paint7_linear)"/><path d="M14.67 33.174S-.947 43.677 3.02 76.144A28.39 28.39 0 012.018 87.83l-2.023 6.643s34.354.772 35.318 0c.597-.478.132-12.713-1.544-29.685-1.027-10.397 2.193-24.86-8.877-32.764l-10.222 1.15z" fill="url(#paint8_linear)"/><path d="M35.317 94.088l15.247 32.192 1.737 32.768H41.494l-4.633-33.926-9.264-16.384-9.263 50.31H7.527l3.28-37.396L0 94.474l35.317-.386z" fill="url(#paint9_linear)"/><path d="M52.303 159.048l3.28 5.011s11.01 4.241 6.177 6.939H40.723v-11.95h11.58z" fill="url(#paint10_linear)"/><path d="M18.143 159.048l3.28 5.011s11.01 4.241 6.177 6.939H6.563v-11.95h11.58z" fill="url(#paint11_linear)"/><path opacity=".2" d="M19.88 7.538a12.11 12.11 0 00-5.99 1.57 12.17 12.17 0 019.012-.277 12.152 12.152 0 016.725 5.998 12.13 12.13 0 01.74 8.976 12.145 12.145 0 01-5.655 7.015 12.153 12.153 0 005.959-5.548 12.132 12.132 0 00-3.116-15.015 12.169 12.169 0 00-7.675-2.726v.007z" fill="url(#paint12_linear)"/><path d="M34.468 0l-3.384 5.161c-1.215 1.856-2.981 3.963-5.167 3.533-1.016-.2-1.83-.932-2.64-1.571-2.654-2.105-5.936-3.532-9.325-3.553-3.388-.02-6.854 1.504-8.762 4.298-1.413 2.062-1.9 4.607-2.18 7.089-.559 4.964 0 10.823 4.15 13.61.336.267.75.416 1.178.424.45-.029.813-.314 1.15-.596 5.195-4.347 8.089-11.416 14.344-14.4 2.76-1.316 6.778-1.327 9.005-3.562 3.28-3.286-.35-7.41 1.63-10.433z" fill="url(#paint13_linear)"/><g opacity=".2"><path opacity=".2" d="M21.926 7.123c.811.644 1.623 1.375 2.64 1.57.414.083.84.074 1.25-.024-.969-.224-1.753-.931-2.537-1.55-2.654-2.106-5.936-3.533-9.324-3.553-.238 0-.474 0-.713.02 3.168.186 6.213 1.575 8.684 3.537z" fill="url(#paint14_linear)"/><path opacity=".2" d="M34.468 0l-1.953 2.982c.187 2.453 1.265 5.162-1.022 7.45-2.229 2.245-6.246 2.245-9.005 3.562-6.262 2.985-9.151 10.056-14.343 14.4-.179.156-.371.295-.576.413.238.13.505.194.776.184.449-.029.813-.314 1.15-.596 5.195-4.347 8.088-11.416 14.343-14.4 2.762-1.316 6.779-1.327 9.005-3.562 3.274-3.286-.357-7.41 1.625-10.433z" fill="url(#paint15_linear)"/></g><path opacity=".2" d="M33.776 64.79c-1.027-10.398 2.193-24.86-8.877-32.765l-2.344.265c10.639 7.962 7.505 22.217 8.52 32.504C32.751 81.766 33.22 94 32.62 94.479c-.294.224-3.694.327-8.275.34 5.893.016 10.627-.06 10.978-.34.595-.483.128-12.718-1.546-29.69z" fill="url(#paint16_linear)"/><path d="M15.981 49.727L39.573 70.57l27.41-5.783-2.143-6.167-21.23 2.507L22.358 42.5a4.83 4.83 0 00-7.127.84 4.819 4.819 0 00.75 6.386z" fill="url(#paint17_linear)"/><path d="M66.97 64.79s6.992.192 9.576-3.663C79.129 57.27 64.84 58.62 64.84 58.62l2.13 6.17z" fill="url(#paint18_linear)"/><path d="M20.295 26.815h-1.222c-2.54 0-4.6 2.056-4.6 4.593v1.221a4.596 4.596 0 004.6 4.594h1.222c2.54 0 4.6-2.057 4.6-4.594v-1.22a4.596 4.596 0 00-4.6-4.594z" fill="url(#paint19_linear)"/><g opacity=".2"><path opacity=".2" d="M25.474 108.738l-9.264 50.31h2.124l8.742-47.478-1.602-2.832z" fill="url(#paint20_linear)"/><path opacity=".2" d="M50.564 126.28L35.317 94.088l-2.112.023 15.236 32.169 1.736 32.768h2.124l-1.737-32.768z" fill="url(#paint21_linear)"/></g><path opacity=".2" d="M55.583 164.061l-3.28-5.011h-.966l3.28 5.011s11.003 4.246 6.179 6.939h.964c4.824-2.693-6.177-6.939-6.177-6.939z" fill="url(#paint22_linear)"/><path opacity=".2" d="M22.39 164.061l-3.281-5.011h-.964l3.28 5.011s11.01 4.242 6.177 6.939h.964c4.819-2.693-6.177-6.939-6.177-6.939z" fill="url(#paint23_linear)"/><path opacity=".2" d="M68.345 59.621l-.411-1.194-19.693 2.325 20.104-1.13z" fill="url(#paint24_linear)"/><path d="M9.7 49.5l6.558-12.371 10.928 4.124L16.258 57.02 9.699 49.5z" fill="url(#paint25_linear)"/><path d="M23.304 46.697L46.24 66.97l26.654-5.623-2.065-5.999-20.648 2.438-20.67-18.124a4.696 4.696 0 00-5.497-.506 4.686 4.686 0 00-.71 7.542zm49.591 14.647s6.8.189 9.313-3.56c2.511-3.75-11.378-2.438-11.378-2.438l2.065 5.998zm-52.602-27.86c6.53 0 11.825-5.288 11.825-11.81 0-6.523-5.294-11.811-11.825-11.811-6.53 0-11.825 5.288-11.825 11.81 0 6.523 5.294 11.811 11.825 11.811z" fill="#CA7070"/><path d="M15.41 34.608S.223 44.824 4.08 76.402c.47 3.816.138 7.687-.975 11.367l-1.96 6.46s33.413.75 34.352 0c.582-.464.128-12.364-1.5-28.872-.998-10.112 2.131-24.18-8.635-31.866l-9.951 1.117z" fill="#263238"/><path d="M35.497 93.853l14.829 31.309 1.687 31.871h-10.51l-4.505-32.995-9.01-15.938-9.01 48.933H8.467l3.19-36.37-10.51-26.436 34.351-.374z" fill="#5CAADE"/><path d="M52.015 157.033l3.19 4.874s10.7 4.125 6.006 6.75H40.752v-11.624h11.263zm-33.235 0l3.191 4.874s10.7 4.125 6.006 6.75H7.529v-11.624h11.252z" fill="#263238"/><path opacity=".2" d="M20.482 9.674a11.778 11.778 0 00-5.826 1.535 11.838 11.838 0 018.72-.215 11.82 11.82 0 016.496 5.816 11.798 11.798 0 01.736 8.682 11.813 11.813 0 01-5.426 6.823 11.821 11.821 0 005.79-5.397 11.8 11.8 0 00-3.029-14.599 11.836 11.836 0 00-7.461-2.654v.01z" fill="#fff"/><path d="M34.668 2.343l-3.29 5.024c-1.181 1.796-2.898 3.853-5.017 3.436-.988-.195-1.777-.898-2.565-1.533-2.584-2.046-5.774-3.435-9.06-3.455-3.284-.02-6.666 1.463-8.537 4.178-1.373 2.004-1.847 4.488-2.121 6.896-.544 4.827 0 10.527 4.044 13.24a1.9 1.9 0 001.144.41c.427-.028.79-.304 1.123-.58 5.05-4.226 7.864-11.104 13.953-14.006 2.685-1.279 6.592-1.29 8.762-3.462 3.17-3.196-.362-7.208 1.564-10.148z" fill="#263238"/><path opacity=".2" d="M22.479 9.27c.789.626 1.573 1.347 2.566 1.533.402.08.816.072 1.215-.022-.941-.225-1.705-.898-2.471-1.508-2.577-2.05-5.768-3.438-9.052-3.459-.225 0-.461 0-.692.02 3.062.178 6.016 1.518 8.434 3.436zm12.189-6.927l-1.9 2.902c.179 2.385 1.23 5.013-.996 7.246-2.168 2.172-6.067 2.183-8.763 3.462-6.09 2.902-8.9 9.78-13.952 14.006-.173.151-.36.286-.56.401.23.127.49.189.753.18.427-.03.79-.305 1.123-.581 5.051-4.226 7.864-11.104 13.953-14.006 2.685-1.279 6.592-1.29 8.762-3.462 3.186-3.196-.346-7.208 1.58-10.148zM33.996 65.355c-.998-10.112 2.132-24.18-8.634-31.866l-2.278.258C33.43 41.49 30.38 55.36 31.37 65.362c1.628 16.507 2.082 28.407 1.5 28.872-.285.225-3.594.319-8.047.332 5.733.016 10.335-.06 10.676-.332.582-.471.133-12.37-1.503-28.88z" fill="#fff"/><path d="M16.69 50.717L39.625 70.98l26.654-5.624-2.065-5.998-20.648 2.437-20.67-18.124a4.696 4.696 0 00-5.497-.506 4.693 4.693 0 00-.71 7.55zm49.59 14.638s6.801.188 9.313-3.562c2.512-3.75-11.378-2.437-11.378-2.437l2.065 5.999zM20.76 28.421h-.937c-2.54 0-4.599 2.057-4.599 4.594v.936a4.596 4.596 0 004.6 4.593h.936c2.54 0 4.6-2.056 4.6-4.593v-.936a4.596 4.596 0 00-4.6-4.594z" fill="#CA7070"/><path opacity=".2" d="M25.923 108.1l-9.01 48.933h2.066l8.501-46.177-1.557-2.756zm24.403 17.062l-14.83-31.31-2.055.023 14.82 31.287 1.687 31.871h2.065l-1.687-31.871zM55.206 161.909l-3.19-4.874h-.94l3.19 4.874s10.7 4.125 6.006 6.75h.94c4.693-2.625-6.006-6.75-6.006-6.75zm-32.284 0l-3.19-4.874h-.951l3.19 4.874s10.7 4.125 6.006 6.75h.94c4.693-2.625-5.995-6.75-5.995-6.75zM67.617 60.33l-.398-1.16-19.153 2.26 19.551-1.1z" fill="#fff"/><path d="M10.58 50.485l6.376-12.03 10.63 4.01-10.63 15.334-6.376-7.314z" fill="#263238"/><path d="M103.763 64.037l19.323-26.242a1.109 1.109 0 01.737-.445 1.122 1.122 0 01.835.207l.899.662a1.119 1.119 0 01.238 1.571l-19.322 26.242-2.71-1.995z" fill="url(#paint26_linear)"/><path d="M104.147 64.318l18.995-25.807a1.108 1.108 0 01.737-.445 1.122 1.122 0 01.836.207l.092.067a1.131 1.131 0 01.445.736 1.134 1.134 0 01-.207.835L106.05 65.718l-1.903-1.4z" fill="#B0BEC5"/></g><defs><linearGradient id="paint0_linear" x1="103.273" y1="165.686" x2="103.273" y2="63.737" gradientUnits="userSpaceOnUse"><stop stop-color="gray" stop-opacity=".25"/><stop offset=".54" stop-color="gray" stop-opacity=".12"/><stop offset="1" stop-color="gray" stop-opacity=".1"/></linearGradient><linearGradient id="paint1_linear" x1="10834.5" y1="7247.9" x2="10834.5" y2="5835.28" gradientUnits="userSpaceOnUse"><stop stop-color="gray" stop-opacity=".25"/><stop offset=".54" stop-color="gray" stop-opacity=".12"/><stop offset="1" stop-color="gray" stop-opacity=".1"/></linearGradient><linearGradient id="paint2_linear" x1="10834.5" y1="9908.28" x2="10834.5" y2="8495.66" gradientUnits="userSpaceOnUse"><stop stop-color="gray" stop-opacity=".25"/><stop offset=".54" stop-color="gray" stop-opacity=".12"/><stop offset="1" stop-color="gray" stop-opacity=".1"/></linearGradient><linearGradient id="paint3_linear" x1="10834.5" y1="12550.8" x2="10834.5" y2="11138.2" gradientUnits="userSpaceOnUse"><stop stop-color="gray" stop-opacity=".25"/><stop offset=".54" stop-color="gray" stop-opacity=".12"/><stop offset="1" stop-color="gray" stop-opacity=".1"/></linearGradient><linearGradient id="paint4_linear" x1="22539.7" y1="1550.04" x2="22539.7" y2="1478.14" gradientUnits="userSpaceOnUse"><stop stop-color="gray" stop-opacity=".25"/><stop offset=".54" stop-color="gray" stop-opacity=".12"/><stop offset="1" stop-color="gray" stop-opacity=".1"/></linearGradient><linearGradient id="paint5_linear" x1="25264.1" y1="10724.3" x2="25264.1" y2="6905.2" gradientUnits="userSpaceOnUse"><stop stop-color="gray" stop-opacity=".25"/><stop offset=".54" stop-color="gray" stop-opacity=".12"/><stop offset="1" stop-color="gray" stop-opacity=".1"/></linearGradient><linearGradient id="paint6_linear" x1="7447" y1="2225.75" x2="7447" y2="2043.25" gradientUnits="userSpaceOnUse"><stop stop-color="gray" stop-opacity=".25"/><stop offset=".54" stop-color="gray" stop-opacity=".12"/><stop offset="1" stop-color="gray" stop-opacity=".1"/></linearGradient><linearGradient id="paint7_linear" x1="2138.37" y1="3473.44" x2="2138.37" y2="844.522" gradientUnits="userSpaceOnUse"><stop stop-color="gray" stop-opacity=".25"/><stop offset=".54" stop-color="gray" stop-opacity=".12"/><stop offset="1" stop-color="gray" stop-opacity=".1"/></linearGradient><linearGradient id="paint8_linear" x1="12361.7" y1="30894.8" x2="12361.7" y2="13323.8" gradientUnits="userSpaceOnUse"><stop stop-color="gray" stop-opacity=".25"/><stop offset=".54" stop-color="gray" stop-opacity=".12"/><stop offset="1" stop-color="gray" stop-opacity=".1"/></linearGradient><linearGradient id="paint9_linear" x1="6087.27" y1="46133.7" x2="6087.27" y2="27329.8" gradientUnits="userSpaceOnUse"><stop stop-color="gray" stop-opacity=".25"/><stop offset=".54" stop-color="gray" stop-opacity=".12"/><stop offset="1" stop-color="gray" stop-opacity=".1"/></linearGradient><linearGradient id="paint10_linear" x1="11154.5" y1="10089.3" x2="11154.5" y2="9452.88" gradientUnits="userSpaceOnUse"><stop stop-color="gray" stop-opacity=".25"/><stop offset=".54" stop-color="gray" stop-opacity=".12"/><stop offset="1" stop-color="gray" stop-opacity=".1"/></linearGradient><linearGradient id="paint11_linear" x1="7735.43" y1="10089.3" x2="7735.43" y2="9452.88" gradientUnits="userSpaceOnUse"><stop stop-color="gray" stop-opacity=".25"/><stop offset=".54" stop-color="gray" stop-opacity=".12"/><stop offset="1" stop-color="gray" stop-opacity=".1"/></linearGradient><linearGradient id="paint12_linear" x1="6740.13" y1="4813.73" x2="6740.13" y2="2396.77" gradientUnits="userSpaceOnUse"><stop stop-color="gray" stop-opacity=".25"/><stop offset=".54" stop-color="gray" stop-opacity=".12"/><stop offset="1" stop-color="gray" stop-opacity=".1"/></linearGradient><linearGradient id="paint13_linear" x1="11121.4" y1="5746.11" x2="11121.4" y2="2000.41" gradientUnits="userSpaceOnUse"><stop stop-color="gray" stop-opacity=".25"/><stop offset=".54" stop-color="gray" stop-opacity=".12"/><stop offset="1" stop-color="gray" stop-opacity=".1"/></linearGradient><linearGradient id="paint14_linear" x1="4481.18" y1="563.434" x2="4481.18" y2="443.695" gradientUnits="userSpaceOnUse"><stop stop-color="gray" stop-opacity=".25"/><stop offset=".54" stop-color="gray" stop-opacity=".12"/><stop offset="1" stop-color="gray" stop-opacity=".1"/></linearGradient><linearGradient id="paint15_linear" x1="9743.48" y1="5746.28" x2="9743.48" y2="2000.47" gradientUnits="userSpaceOnUse"><stop stop-color="gray" stop-opacity=".25"/><stop offset=".54" stop-color="gray" stop-opacity=".12"/><stop offset="1" stop-color="gray" stop-opacity=".1"/></linearGradient><linearGradient id="paint16_linear" x1="5198.61" y1="30897" x2="5198.61" y2="13324.7" gradientUnits="userSpaceOnUse"><stop stop-color="gray" stop-opacity=".25"/><stop offset=".54" stop-color="gray" stop-opacity=".12"/><stop offset="1" stop-color="gray" stop-opacity=".1"/></linearGradient><linearGradient id="paint17_linear" x1="23665.9" y1="11264.4" x2="23665.9" y2="7446.21" gradientUnits="userSpaceOnUse"><stop stop-color="gray" stop-opacity=".25"/><stop offset=".54" stop-color="gray" stop-opacity=".12"/><stop offset="1" stop-color="gray" stop-opacity=".1"/></linearGradient><linearGradient id="paint18_linear" x1="7080.58" y1="2347.43" x2="7080.58" y2="2164.99" gradientUnits="userSpaceOnUse"><stop stop-color="gray" stop-opacity=".25"/><stop offset=".54" stop-color="gray" stop-opacity=".12"/><stop offset="1" stop-color="gray" stop-opacity=".1"/></linearGradient><linearGradient id="paint19_linear" x1="927.526" y1="1753.21" x2="927.526" y2="1270.48" gradientUnits="userSpaceOnUse"><stop stop-color="gray" stop-opacity=".25"/><stop offset=".54" stop-color="gray" stop-opacity=".12"/><stop offset="1" stop-color="gray" stop-opacity=".1"/></linearGradient><linearGradient id="paint20_linear" x1="1062.88" y1="35765.7" x2="1062.88" y2="24486.6" gradientUnits="userSpaceOnUse"><stop stop-color="gray" stop-opacity=".25"/><stop offset=".54" stop-color="gray" stop-opacity=".12"/><stop offset="1" stop-color="gray" stop-opacity=".1"/></linearGradient><linearGradient id="paint21_linear" x1="3666.87" y1="46133.7" x2="3666.87" y2="27329.8" gradientUnits="userSpaceOnUse"><stop stop-color="gray" stop-opacity=".25"/><stop offset=".54" stop-color="gray" stop-opacity=".12"/><stop offset="1" stop-color="gray" stop-opacity=".1"/></linearGradient><linearGradient id="paint22_linear" x1="6140.12" y1="10089.3" x2="6140.12" y2="9452.89" gradientUnits="userSpaceOnUse"><stop stop-color="gray" stop-opacity=".25"/><stop offset=".54" stop-color="gray" stop-opacity=".12"/><stop offset="1" stop-color="gray" stop-opacity=".1"/></linearGradient><linearGradient id="paint23_linear" x1="4384.77" y1="10089.3" x2="4384.77" y2="9452.89" gradientUnits="userSpaceOnUse"><stop stop-color="gray" stop-opacity=".25"/><stop offset=".54" stop-color="gray" stop-opacity=".12"/><stop offset="1" stop-color="gray" stop-opacity=".1"/></linearGradient><linearGradient id="paint24_linear" x1="5264.28" y1="687.82" x2="5264.28" y2="663.735" gradientUnits="userSpaceOnUse"><stop stop-color="gray" stop-opacity=".25"/><stop offset=".54" stop-color="gray" stop-opacity=".12"/><stop offset="1" stop-color="gray" stop-opacity=".1"/></linearGradient><linearGradient id="paint25_linear" x1="1445.01" y1="5091.4" x2="1445.01" y2="3328.2" gradientUnits="userSpaceOnUse"><stop stop-color="gray" stop-opacity=".25"/><stop offset=".54" stop-color="gray" stop-opacity=".12"/><stop offset="1" stop-color="gray" stop-opacity=".1"/></linearGradient><linearGradient id="paint26_linear" x1="17454" y1="10459.3" x2="17454" y2="6791.84" gradientUnits="userSpaceOnUse"><stop stop-color="gray" stop-opacity=".25"/><stop offset=".54" stop-color="gray" stop-opacity=".12"/><stop offset="1" stop-color="gray" stop-opacity=".1"/></linearGradient><clipPath id="clip0"><path fill="#fff" d="M0 0h149v171H0z"/></clipPath></defs></svg>