<svg fill="none" xmlns="http://www.w3.org/2000/svg" viewBox="0 0 254 179"><path opacity=".1" d="M249.086 44.268a51.838 51.838 0 00-10.076-13.524l-139.781-1.16L214.315 15.97a76.08 76.08 0 00-23.35-3.901C179.886 4.53 165.646 0 150.114 0c-13.936 0-26.823 3.648-37.329 9.84-8.937-3.882-19.11-6.075-29.92-6.075-31.058 0-56.937 18.12-62.743 42.15l228.964-1.647zM254 64.414a43.998 43.998 0 00-4.356-19.02L7.386 66.823a46.888 46.888 0 00-5.675 12.074l75.02 9.42L0 95.186c2.308 27.201 29.992 48.682 63.81 48.682 17.023 0 32.49-5.445 43.951-14.321 11.498 9.044 27.106 14.601 44.32 14.601 25.528 0 47.563-12.245 57.824-29.95 20.585-5.503 36.576-19.324 42.05-36.61l-94.873-12.39H254v-.784z" fill="#F89C0E"/><path d="M63.707 123.872s-10.39-14.937-8.625-29.034a27.452 27.452 0 00-3.327-17.098 46.296 46.296 0 00-4.886-6.93" stroke="#535461" stroke-width="2" stroke-miterlimit="10"/><path d="M47.927 61.921c.675 2.027-1.058 9.125-1.058 9.125s-5.64-4.665-6.314-6.695a3.856 3.856 0 01.217-2.953 3.879 3.879 0 012.25-1.935 3.896 3.896 0 012.963.217 3.873 3.873 0 011.942 2.241zm9.823 9.226c-.54 2.067-5.864 7.086-5.864 7.086s-2.19-6.97-1.648-9.037a3.864 3.864 0 011.782-2.401 3.893 3.893 0 015.35 1.39 3.858 3.858 0 01.38 2.962zm6.112 19.286c-1.515 1.514-8.654 3.167-8.654 3.167s1.643-7.118 3.147-8.63a3.889 3.889 0 015.49-.008 3.861 3.861 0 01.008 5.47h.009zm1.324 15.64c-1.237 1.744-7.993 4.578-7.993 4.578s.411-7.293 1.647-9.038a3.89 3.89 0 015.41-.931 3.86 3.86 0 01.935 5.391zM44.28 81.178c1.929.932 9.216.153 9.216.153s-3.902-6.182-5.844-7.116a3.895 3.895 0 00-2.908-.09 3.877 3.877 0 00-2.153 1.949 3.855 3.855 0 00-.19 2.892c.315.953.989 1.746 1.88 2.212zm1.778 18.26c2.122.314 8.843-2.602 8.843-2.602s-5.581-4.737-7.698-5.05a3.896 3.896 0 00-2.883.718 3.858 3.858 0 00-.807 5.412 3.885 3.885 0 002.548 1.523h-.003zm4.177 17.511c2.039.672 9.157-1.075 9.157-1.075s-4.698-5.6-6.743-6.271a3.892 3.892 0 00-4.156 1.153 3.862 3.862 0 001.733 6.197l.009-.004z" fill="#F89C0E"/><path opacity=".25" d="M47.927 61.921c.675 2.027-1.058 9.125-1.058 9.125s-5.64-4.665-6.314-6.695a3.856 3.856 0 01.217-2.953 3.879 3.879 0 012.25-1.935 3.896 3.896 0 012.963.217 3.873 3.873 0 011.942 2.241zm9.823 9.226c-.54 2.067-5.864 7.086-5.864 7.086s-2.19-6.97-1.648-9.037a3.864 3.864 0 011.782-2.401 3.893 3.893 0 015.35 1.39 3.858 3.858 0 01.38 2.962zm6.112 19.286c-1.515 1.514-8.654 3.167-8.654 3.167s1.643-7.118 3.147-8.63a3.889 3.889 0 015.49-.008 3.861 3.861 0 01.008 5.47h.009zm1.324 15.64c-1.237 1.744-7.993 4.578-7.993 4.578s.411-7.293 1.647-9.038a3.89 3.89 0 015.41-.931 3.86 3.86 0 01.935 5.391zM44.28 81.178c1.929.932 9.216.153 9.216.153s-3.902-6.182-5.844-7.116a3.895 3.895 0 00-2.908-.09 3.877 3.877 0 00-2.153 1.949 3.855 3.855 0 00-.19 2.892c.315.953.989 1.746 1.88 2.212zm1.778 18.26c2.122.314 8.843-2.602 8.843-2.602s-5.581-4.737-7.698-5.05a3.896 3.896 0 00-2.883.718 3.858 3.858 0 00-.807 5.412 3.885 3.885 0 002.548 1.523h-.003zm4.177 17.511c2.039.672 9.157-1.075 9.157-1.075s-4.698-5.6-6.743-6.271a3.892 3.892 0 00-4.156 1.153 3.862 3.862 0 001.733 6.197l.009-.004z" fill="#000"/><path d="M63.648 123.271s-15.572-9.46-19.695-23.069a27.55 27.55 0 00-9.993-14.287 46.505 46.505 0 00-7.286-4.36" stroke="#535461" stroke-width="2" stroke-miterlimit="10"/><path d="M24.027 73.008c1.44 1.581 2.742 8.768 2.742 8.768s-7.051-1.988-8.492-3.57a3.86 3.86 0 01.266-5.463 3.89 3.89 0 015.484.265zm12.733 4.466c.347 2.11-2.472 8.849-2.472 8.849s-4.842-5.49-5.19-7.6a3.858 3.858 0 01.678-2.882 3.893 3.893 0 015.418-.884 3.866 3.866 0 011.566 2.517zm13.43 15.16c-.77 1.996-6.623 6.39-6.623 6.39s-1.394-7.167-.625-9.165a3.875 3.875 0 012.046-2.147c.94-.417 2.01-.445 2.97-.077s1.737 1.102 2.156 2.04c.418.937.446 2.002.077 2.96zm7.578 13.759c-.42 2.096-5.446 7.413-5.446 7.413s-2.59-6.833-2.17-8.927a3.859 3.859 0 011.653-2.461 3.895 3.895 0 015.385 1.07 3.866 3.866 0 01.578 2.905zM28.52 92.086c2.144.074 8.49-3.584 8.49-3.584s-6.08-4.076-8.225-4.154a3.896 3.896 0 00-2.782 1.038 3.871 3.871 0 00-1.23 2.695 3.855 3.855 0 001.042 2.772 3.88 3.88 0 002.705 1.226v.007zm9.056 15.973c2.068-.569 7.027-5.948 7.027-5.948s-7.029-2.086-9.088-1.508a3.897 3.897 0 00-2.374 1.813 3.864 3.864 0 00-.375 2.957 3.87 3.87 0 003.297 2.812c.51.059 1.027.016 1.52-.126h-.007zm10.94 14.323c2.136-.224 7.935-4.681 7.935-4.681s-6.575-3.229-8.708-3.017a3.904 3.904 0 00-2.618 1.4 3.86 3.86 0 00.547 5.443 3.89 3.89 0 002.844.855z" fill="#F89C0E"/><path opacity=".1" d="M127.16 166.791c22.221 0 40.235-1.065 40.235-2.378 0-1.314-18.014-2.379-40.235-2.379-22.222 0-40.236 1.065-40.236 2.379 0 1.313 18.014 2.378 40.236 2.378zm40.721 10.097c5.817 0 10.533-.855 10.533-1.911 0-1.055-4.716-1.91-10.533-1.91-5.818 0-10.534.855-10.534 1.91 0 1.056 4.716 1.911 10.534 1.911z" fill="#F89C0E"/><path d="M145.657 160.231v1.436h-42.623v-1.169c2.6-.96 4.855-2.667 6.481-4.905a13.92 13.92 0 00.58-15.508 13.994 13.994 0 00-6.097-5.371h41.378a14.003 14.003 0 00-5.995 5.219 13.927 13.927 0 00.167 15.211 14.009 14.009 0 006.109 5.087z" fill="#C8CAD7"/><path opacity=".1" d="M145.376 134.716a14.03 14.03 0 00-4.926 3.755 13.95 13.95 0 00-2.82 5.502h-25.886a13.95 13.95 0 00-2.82-5.502 14.03 14.03 0 00-4.926-3.755h41.378z" fill="#000"/><path d="M54.219 127.399v8.063c0 4.453 3.27 8.063 7.305 8.063h125.427c4.035 0 7.305-3.61 7.305-8.063v-8.063H54.219z" fill="#C8CAD7"/><path opacity=".1" d="M145.657 160.231v1.436h-42.623v-1.169a14.01 14.01 0 003.286-1.743h36.729a14.023 14.023 0 002.608 1.476z" fill="#000"/><path d="M157.617 159.203H91.083c-1.18 0-2.136.953-2.136 2.128 0 1.175.956 2.128 2.136 2.128h66.534a2.133 2.133 0 002.136-2.128 2.133 2.133 0 00-2.136-2.128z" fill="#C8CAD7"/><path d="M194.256 39.043c0-1.93-.77-3.782-2.14-5.147s-3.228-2.132-5.165-2.132H61.524a7.319 7.319 0 00-5.165 2.132 7.265 7.265 0 00-2.14 5.147v89.924h140.037V39.043z" fill="#474157"/><path d="M186.838 38.707H61.637a3.59 3.59 0 00-3.597 3.583v77.27a3.59 3.59 0 003.597 3.584h125.201a3.59 3.59 0 003.597-3.584V42.29a3.59 3.59 0 00-3.597-3.583z" fill="#EDEDF4"/><path d="M124.237 36.915c.932 0 1.686-.752 1.686-1.68 0-.928-.754-1.68-1.686-1.68-.931 0-1.685.752-1.685 1.68 0 .928.754 1.68 1.685 1.68zm0 103.027a4.151 4.151 0 004.159-4.144 4.151 4.151 0 00-4.159-4.143 4.15 4.15 0 00-4.158 4.143 4.151 4.151 0 004.158 4.144z" fill="#fff"/><path d="M190.435 42.29H58.04c0-.95.379-1.862 1.053-2.534a3.603 3.603 0 012.544-1.05h125.201c.954 0 1.869.378 2.543 1.05a3.575 3.575 0 011.054 2.534z" fill="#C8CAD7"/><path d="M61.637 41.394a.897.897 0 100-1.792.897.897 0 100 1.792zm2.697 0a.897.897 0 100-1.792.897.897 0 100 1.792zm2.697 0a.897.897 0 100-1.792.897.897 0 100 1.792z" fill="#EDEDF4"/><path d="M96.927 45.314H62.985v2.016h33.942v-2.016zm0 58.904H62.985v2.016h33.942v-2.016z" fill="#F89C0E"/><path opacity=".2" d="M125.923 108.698H62.985v2.015h62.938v-2.015zm0 2.914H62.985v2.015h62.938v-2.015zm0 2.911H62.985v2.016h62.938v-2.016zm-.449-63.834H62.985v33.82h62.489v-33.82zM78.27 87.644H63.66v13.439h14.61V87.644zm47.204 0h-14.611v13.439h14.611V87.644zm-23.939 0h-14.61v13.439h14.61V87.644zm80.284-27.118h-43.007v31.542h43.007V60.526z" fill="#F89C0E"/><path d="M177.285 66.927h-33.941v2.016h33.941v-2.016zm0 4.182h-33.941v2.015h33.941V71.11zm0 4.181h-33.941v2.016h33.941V75.29zm0 4.18h-33.941v2.015h33.941V79.47zm0 4.181h-33.941v2.016h33.941V83.65z" fill="#EDEDF4"/><path d="M176.575 95.651h-32.519v5.674h32.519v-5.674zm-12.451 18.904h-21.805v3.805h21.805v-3.805z" fill="#F89C0E"/><path opacity=".1" d="M58.09 174.31c3.55 0 6.428-.291 6.428-.65 0-.358-2.878-.649-6.428-.649s-6.43.291-6.43.649c0 .359 2.88.65 6.43.65zm131.594-9.548c2.128 0 3.853-.174 3.853-.39 0-.215-1.725-.389-3.853-.389s-3.853.174-3.853.389c0 .216 1.725.39 3.853.39z" fill="#F89C0E"/><path d="M60.335 162.961s-8.384 4.316-4.046 9.407c0 0 .407 1.12 1.587 1.026 0 0-.236-.428.674-.768.318-.125.62-.286.9-.48.38-.262.665-.641.81-1.079 0 0 1.716-2.287.387-6.518 0 0 .171-1.196.02-1.388l-1.029 1.368s1.054.703 1.174 1.738c0 0-1.097-1.736-1.336-1.538-.047.04-.505.761-.505.761s1.825 1.234 1.962 2.836c0 0-1.03-2.24-2.14-2.565l-.627 1.131s1.996 1.21 2.22 3.028c0 0-1.157-2.307-2.34-2.773l-.467 1.194s1.922 1.219 2.1 2.733c0 0-1.607-2.531-2.187-2.464 0 0-.362 1.12-.315 1.467 0 0 1.36.896 1.385 1.792 0 0-1.255-1.579-1.448-1.474 0 0-.08 1.586.306 2.412 0 0-.661-1.178-.556-2.412-.39.346-.67.798-.804 1.301 0 0-.362-.873.83-1.675 0 0 .112-1.234.249-1.386 0 0-1.288.625-1.834 1.395 0 0 .2-1.147 1.946-1.716l.45-1.209s-1.745.737-2.282 1.386c0 0 .387-1.137 2.419-1.682l.602-1.12s-1.55.52-2.306 1.12c0 0 .587-.976 2.493-1.426l.49-.697s-1.124.401-1.439.544c-.315.144-.377.072-.377.072a4.073 4.073 0 012.023-.912s1.09-1.364 1.011-1.429z" fill="#F89C0E"/><path opacity=".1" d="M38.055 164.263c2.721 0 4.927-.223 4.927-.498 0-.274-2.206-.497-4.927-.497s-4.927.223-4.927.497c0 .275 2.206.498 4.927.498z" fill="#F89C0E"/><path d="M39.786 155.57s-6.424 3.306-3.107 7.203a1.23 1.23 0 001.216.786s-.18-.327.51-.589c.245-.096.477-.219.693-.367a1.64 1.64 0 00.623-.829s1.312-1.751.294-4.992c0 0 .133-.918.016-1.066l-.78 1.068s.807.54.899 1.331c0 0-.84-1.328-1.023-1.178-.036.031-.386.584-.386.584s1.398.945 1.503 2.173c0 0-.789-1.72-1.64-1.965l-.48.865s1.527.927 1.7 2.32c0 0-.888-1.767-1.798-2.123l-.358.914s1.475.934 1.61 2.094c0 0-1.232-1.94-1.677-1.879 0 0-.276.86-.24 1.12 0 0 1.042.694 1.06 1.375 0 0-.962-1.21-1.11-1.12 0 0-.06 1.214.236 1.848a3.684 3.684 0 01-.427-1.848c-.297.263-.511.606-.616.988 0 0-.276-.672.636-1.284 0 0 .086-.945.191-1.061 0 0-.987.479-1.405 1.068 0 0 .153-.878 1.49-1.315l.34-.927s-1.337.565-1.751 1.064c0 0 .297-.873 1.854-1.29l.463-.853s-1.189.398-1.769.853c0 0 .45-.75 1.911-1.093l.376-.535s-.861.307-1.102.419c-.24.112-.29.053-.29.053.44-.371.976-.613 1.547-.698 0 0 .84-1.069.79-1.114zm151.667 2.332s-5.024 2.596-2.43 5.633c.073.189.205.35.376.46.17.111.372.164.575.153 0 0-.142-.255.4-.461.191-.074.373-.17.542-.287.228-.158.398-.385.485-.647 0 0 1.028-1.371.225-3.904 0 0 .101-.716.011-.833l-.609.833s.632.424.704 1.044c0 0-.659-1.041-.8-.923-.03.025-.304.448-.304.448s1.095.739 1.176 1.698c0 0-.616-1.344-1.282-1.534l-.359.692s1.193.723 1.328 1.814c0 0-.692-1.382-1.402-1.662l-.279.717s1.151.728 1.259 1.637c0 0-.965-1.519-1.311-1.469a3.66 3.66 0 00-.189.878s.814.542.83 1.075c0 0-.753-.945-.868-.883 0 0-.049.95.182 1.445a2.906 2.906 0 01-.332-1.445c-.233.206-.4.474-.481.773 0 0-.225-.524.496-1.003 0 0 .068-.739.149-.831 0 0-.771.374-1.097.835 0 0 .119-.687 1.164-1.028l.265-.723s-1.045.448-1.369.828c0 0 .225-.672 1.453-1.007l.359-.672a5.971 5.971 0 00-1.382.672s.353-.585 1.495-.854l.292-.419s-.675.242-.861.327c-.187.085-.225.043-.225.043.345-.291.763-.48 1.209-.547 0 0 .65-.828.605-.873z" fill="#F89C0E"/><path opacity=".1" d="M210.402 178.998c5.183 0 9.384-.35 9.384-.782 0-.432-4.201-.782-9.384-.782-5.183 0-9.385.35-9.385.782 0 .432 4.202.782 9.385.782z" fill="#F89C0E"/><path d="M217.916 153.555a3.889 3.889 0 00-.512.963c-.032.083-.061.179-.092.271a.96.96 0 00-.18-.063 2.48 2.48 0 00-.8-.067c0-.105.011-.213.015-.329.032-1.181-.108-2.827-1.238-2.128-1.084.672-.31 1.792.389 2.508.06.063.121.121.179.177-.636.448-.759 1.508-.865 2.607-.106 1.1-1.043 2.303-1.663 2.986l-.178.19a2.275 2.275 0 00-1.798-.463c-.027-.097-.054-.198-.086-.303-.501-1.812-1.546-4.95-2.881-5.637.058-.07.117-.143.177-.224.567-.739 1.203-1.834.261-2.114-.942-.28-1.025.949-.973 1.872 0 .116.009.226.027.329a1.397 1.397 0 00-.987.48l-.144-.173c-.764-.896-2.167-2.323-2.589-1.245-.396 1.003.836 2.307 1.704 3.061l.056.048c-.585 2.353 1.958 4.273 3.326 5.113l.178.107c-1.888 2.218-3.052 6.374-3.052 6.374l5.286.941s3.505-3.014 3.057-5.845h.036c3.502-.699 4.3-4.422 3.754-6.632l.061-.025a3.97 3.97 0 001.623-1.223c.971-1.362-1.073-2.9-2.091-1.556z" fill="#F89C0E"/><path opacity=".1" d="M217.916 153.555a3.889 3.889 0 00-.512.963c-.032.083-.061.179-.092.271a.96.96 0 00-.18-.063 2.48 2.48 0 00-.8-.067c0-.105.011-.213.015-.329.032-1.181-.108-2.827-1.238-2.128-1.084.672-.31 1.792.389 2.508.06.063.121.121.179.177-.636.448-.759 1.508-.865 2.607-.106 1.1-1.043 2.303-1.663 2.986l-.178.19a2.275 2.275 0 00-1.798-.463c-.027-.097-.054-.198-.086-.303-.501-1.812-1.546-4.95-2.881-5.637.058-.07.117-.143.177-.224.567-.739 1.203-1.834.261-2.114-.942-.28-1.025.949-.973 1.872 0 .116.009.226.027.329a1.397 1.397 0 00-.987.48l-.144-.173c-.764-.896-2.167-2.323-2.589-1.245-.396 1.003.836 2.307 1.704 3.061l.056.048c-.585 2.353 1.958 4.273 3.326 5.113l.178.107c-1.888 2.218-3.052 6.374-3.052 6.374l5.286.941s3.505-3.014 3.057-5.845h.036c3.502-.699 4.3-4.422 3.754-6.632l.061-.025a3.97 3.97 0 001.623-1.223c.971-1.362-1.073-2.9-2.091-1.556z" fill="#000"/><path d="M207.392 155.069l-.618 1.791s-.344-.241-.778-.622c-.865-.755-2.099-2.059-1.704-3.062.423-1.077 1.826.345 2.59 1.245.306.37.51.648.51.648zm1.306-1.031c-.189.246-.39.483-.602.708a8.643 8.643 0 01-.11-.949c-.052-.923.044-2.148.973-1.873.928.276.31 1.375-.261 2.114zm7.973.285c-.02.593-.079 1.068-.079 1.068a7.98 7.98 0 01-.771-.687c-.699-.724-1.472-1.839-.389-2.509 1.131-.699 1.27.947 1.239 2.128zm3.65.777a3.97 3.97 0 01-1.62 1.223 5.047 5.047 0 01-.544.197l-.729-1.019c.076-.337.176-.668.299-.99a3.91 3.91 0 01.513-.963c1.007-1.337 3.061.201 2.081 1.552z" fill="#F89C0E"/><path opacity=".1" d="M206.882 154.433c.306.358.51.636.51.636l-.618 1.791s-.344-.241-.778-.622a3.547 3.547 0 01.886-1.805zm1.816-.395c-.188.246-.39.483-.602.708a8.643 8.643 0 01-.11-.949c.256.005.505.09.712.241z" fill="#000"/><path d="M211.742 161.197l-1.538.671s-.337-.161-.82-.461c-1.614-.99-4.865-3.483-2.698-6.421 2.167-2.939 3.995 2.331 4.721 4.909.213.773.335 1.302.335 1.302z" fill="#F89C0E"/><path opacity=".1" d="M215.821 154.704a1.26 1.26 0 01.85-.381c-.02.593-.079 1.068-.079 1.068a7.98 7.98 0 01-.771-.687zm2.889 1.619a5.047 5.047 0 01-.544.197l-.728-1.019c.075-.337.175-.668.298-.99.461.273.807.954.974 1.812z" fill="#000"/><path d="M214.888 162.979a3.208 3.208 0 01-.26.045c-5.152.782-1.7-1.989-1.7-1.989s.225-.212.549-.562c.62-.672 1.555-1.879 1.663-2.985.162-1.665.349-3.226 2.32-2.769 1.971.457 2.302 7.286-2.572 8.26z" fill="#F89C0E"/><path d="M214.787 175.766h-9.847v2.58h9.847v-2.58z" fill="#D4DFEC"/><path d="M216.239 167.38h-12.866v9.004h12.866v-9.004z" fill="#D4DFEC"/><path opacity=".1" d="M214.787 175.766h-9.847v2.58h9.847v-2.58z" fill="#000"/><path opacity=".1" d="M216.239 167.38h-12.866v9.004h12.866v-9.004z" fill="#000"/><path d="M215.435 175.766h-9.848v2.58h9.848v-2.58z" fill="#D4DFEC"/><path opacity=".1" d="M211.402 159.897c.225.771.335 1.299.335 1.299l-1.537.672s-.338-.161-.821-.461c.603-.759 1.284-1.333 2.023-1.51zm3.487 3.082a3.31 3.31 0 01-.261.045c-5.152.782-1.7-1.989-1.7-1.989s.225-.212.549-.562c.962.768 1.355 1.633 1.412 2.506z" fill="#000"/><path d="M206.504 167.889s2.886-10.303 6.932-7.125c4.046 3.178-1.645 8.063-1.645 8.063l-5.287-.938z" fill="#F89C0E"/><path opacity=".1" d="M207.961 156.925a.323.323 0 100-.645.323.323 0 100 .645zm-.027 1.505a.323.323 0 100-.645.323.323 0 100 .645zm9.387-1.209a.323.323 0 100-.645.323.323 0 100 .645zm-7.553 7.714a.323.323 0 100-.645.323.323 0 100 .645zm6.878-5.214a.323.323 0 10.002-.644.323.323 0 00-.002.644zm-3.344 3.332a.323.323 0 100-.645.323.323 0 100 .645zm-4.235-5.483a.323.323 0 100-.645.323.323 0 100 .645zm7.363.619a.323.323 0 10.002-.644.323.323 0 00-.002.644zm-1.105 2.499a.323.323 0 100-.645.323.323 0 100 .645zm-3.399 4.005a.323.323 0 100-.645.323.323 0 100 .645zm-.701-1.586a.323.323 0 100-.646.323.323 0 000 .646zm-1.673-3.575a.323.323 0 10.002-.646.323.323 0 00-.002.646zm5.883 16.234h-9.848v.943h9.848v-.943z" fill="#000"/><path d="M216.889 167.38h-12.866v9.004h12.866v-9.004z" fill="#D4DFEC"/><path opacity=".1" d="M212.357 166.144a.323.323 0 10.002-.646.323.323 0 00-.002.646zm-1.942.403a.323.323 0 10.002-.646.323.323 0 00-.002.646z" fill="#000"/><path d="M188.203 128.499c-.27-.193-.382-.656-.423-1.12 0-.105-.016-.208-.02-.307.121-.073.227-.169.312-.282.533-.752-.739-3.483-.739-3.483s.492-1.424 0-2.651c-.492-1.228-.717-1.465-.717-1.465s-1.664-3.405-1.416-3.808c.247-.403-.412-3.583-.899-4.222a9.196 9.196 0 00-.657-.792s.083-1.385-.616-2.464c-.699-1.08-1.476-4.076-1.476-4.076s-.861-2.811-1.477-3.808a4.275 4.275 0 00-.899-.92c.096-.448.319-1.042-.32-4.554-.26-1.442.147-2.302.482-3.729.334-1.427.262-3.077-.765-4.155-1.027-1.077-2.621-1.279-3.895-2.015-1.124-.648-2.124-1.743-3.437-1.723-.964.016-.962.166-1.85.527-1.535.622-3.262.434-4.821.95-1.403.463-3.186 1.986-2.761 3.6.067.366.248.702.517.96.304.275.675.277 1.09.194 0 .027 0 .052-.015.079a3.98 3.98 0 00-.054.671c0 2.395 2.003 4.339 4.48 4.354.013.052.024.106.038.16.033.143.065.286.096.434-.116.155-.238.31-.352.464a4.476 4.476 0 00-.675 1.193c-1.299.265-3.477.692-3.821 1.252-.45.753-2.297 4.48-2.093 6.175.011.094.02.224.029.359 0 0-1.137 2.015-1.301 2.649-.164.634-.533 3.008-1.232 3.561-.699.554-2.133 2.336-1.928 2.688.204.352-1.929.791-1.929.791s-1.434.553-1.349.99c.025.132-.076.257-.224.378-1.632-.535-3.712-.896-5.323-.081-2.248 1.136 1.695 1.918 4.046 2.26.386.059.728.103.993.135.018.076.092.143.281.208.149.052.369.132.625.224l.095-.291c.78.275 2.908 1.133 2.908 1.133s1.848.3 2.381-.768c.224-.432.838-1.12 1.506-1.792l-.074.24-1.556 5.113s-2.461 3.808-2.338 4.63c.124.822-.78 2.929-.984 3.135-.205.206-2.248 6.213-3.325 6.61-1.076.396-2.504 1.78-2.023 2.217.481.437 2.473 1.859 3.372 1.384.899-.475 2.473.396 2.473.396s1.721-.282 3.124.39l.052.5c.146 1.343.384 3.2.638 3.74.411.871.78 2.414.45 3.008-.331.593.287 11.913.899 13.852.481 1.519 1.139 3.963 1.027 5.557a47.17 47.17 0 00-.115 2.912v.161c0 .054-.038.085-.056.13v.087a8.03 8.03 0 00-.357 1.033s-1.059 2.652-.702 3.344c.042.076.1.142.169.195.51.407 1.798.495 2.248.512l-.02.672h.604s.016-.672.056-1.509c.177-.471.265-.971.261-1.474a6.009 6.009 0 01.54-2.546s.013-.07.027-.182c.03-.231.043-.464.038-.696a2.455 2.455 0 00-.225-1.185 2.665 2.665 0 01.045-.724c.164-.593-.247-4.748-.247-4.748l.697-7.64s.411-5.897.247-7.44a4.91 4.91 0 01.029-1.241c.257-1.677.408-3.369.45-5.066v-.475c1.492.511 4.023.092 4.023.092s.589-.013 1.371 0c.021.161.043.32.065.475.12.831.261 1.568.407 1.884.409.871.78 2.414.45 3.007-.331.594.285 11.914.899 13.853.483 1.519 1.142 3.96 1.029 5.557a46.982 46.982 0 00-.114 2.911v.18c-.02.042-.041.085-.059.13-.018.044 0 .06 0 .087a8.21 8.21 0 00-.339 1.037s-1.061 2.654-.701 3.346a.599.599 0 00.168.193c.511.409 1.798.495 2.248.513l-.02.671h.604s.016-.671.057-1.509c.176-.471.264-.971.26-1.474a6.037 6.037 0 01.531-2.546c.049-.289.071-.581.065-.874a2.436 2.436 0 00-.236-1.191 2.732 2.732 0 01.045-.722c.164-.593-.245-4.75-.245-4.75l.697-7.637s.411-5.898.245-7.441a5.006 5.006 0 01.031-1.241c.248-1.593.398-3.201.45-4.813v-.481c.148-.182.449-.325 1.281-.603 1.436-.475 4.309-2.851 5.458-3.008 1.148-.156 2.173-.911 1.845-1.505-.328-.593-2.133-.99-1.969-1.899.164-.909-1.108-1.465-1.681-2.968s-3.08-2.687-3.12-3.807c-.041-1.12-2.365-4.542-2.365-4.542s-2.335-3.871-2.852-6.236c0-.053-.021-.103-.03-.152h.03a4.243 4.243 0 01-.086-.538c0-.051.012-.105.021-.152h-.032v-.101a.42.42 0 01.05-.031l.134-.078-.045.018c.27-.175.519-.377.744-.605.372-.328.665-.735.857-1.192a6.046 6.046 0 00.335-1.567l.292-.448c.283 1.18.697 2.873.827 3.252a32.819 32.819 0 011.479 4.918 16.702 16.702 0 001.798 4.632s2.093 2.73 3.694 2.849c1.6.118.699.553.944.634l.069.015.025.32.07.93s1.641 6.65 3.488 5.7c1.848-.95-.4-5.434-1.011-5.868z" fill="url(#paint0_linear)"/><path d="M188.419 134.396c-1.776.945-3.354-5.657-3.354-5.657l-.068-.925-.128-1.75 2.169.276a6.722 6.722 0 000 1.135c.039.448.149.916.407 1.105.578.434 2.747 4.873.974 5.816zm-26.756 38.555l.151-.115a.772.772 0 01-.151.115zm4.471-36.275v5.095a40.984 40.984 0 01-.45 5.033c-.06.407-.07.82-.029 1.23.158 1.534-.225 7.391-.225 7.391l-.674 7.586s.393 4.125.225 4.703a2.843 2.843 0 00-.043.719c.023.672.14 1.534.178 1.792v.078l-.025.018-3.297 2.506c.525-.477.66-1.588.658-2.618v-.336c0-.963.038-1.926.113-2.889.107-1.584-.526-4.009-.99-5.519-.591-1.924-1.184-13.165-.867-13.754.317-.589-.041-2.123-.434-2.988-.232-.526-.456-2.367-.591-3.711-.086-.815-.137-1.433-.137-1.433l6.588-2.903zm7.004 35.267l.163-.121a.956.956 0 01-.163.121zm4.471-36.275v5.346a40.964 40.964 0 01-.434 4.782c-.06.407-.07.82-.029 1.23.157 1.534-.225 7.391-.225 7.391l-.674 7.586s.395 4.125.238 4.703c-.046.236-.06.477-.043.717.023.672.142 1.548.178 1.792a.2.2 0 00.011.074l-.025.017-3.302 2.507c.511-.489.643-1.586.641-2.603v-.338c0-.963.045-1.926.11-2.889.106-1.584-.526-4.007-.989-5.517-.593-1.924-1.184-13.165-.867-13.754.316-.589-.041-2.123-.434-2.987-.142-.305-.277-1.046-.394-1.871-.209-1.496-.357-3.276-.357-3.276l6.595-2.91z" fill="#A1616A"/><path opacity=".1" d="M171.45 92.897l-.034.051a4.322 4.322 0 01-3.001 1.792 3.727 3.727 0 01-.528.036c-.013-.054-.024-.108-.038-.16-.258-1.12-.533-2.015-.533-2.015s.295-.423.724-.963c1.167-1.47 3.316-3.792 3.147-.688-.036.629.04 1.26.225 1.861.016.016.025.047.038.085z" fill="#000"/><path d="M172.221 90.283a4.313 4.313 0 01-1.088 2.862 4.337 4.337 0 01-3.253 1.46h-.031a4.348 4.348 0 01-2.401-.744 4.324 4.324 0 01-1.583-1.947 4.31 4.31 0 01-.233-2.495 4.317 4.317 0 011.195-2.204 4.343 4.343 0 014.724-.922c.79.328 1.466.882 1.941 1.592.475.71.729 1.544.729 2.398z" fill="#A1616A"/><path d="M176.429 102.879l-4.208 3.583s-4.588-6.522-4.046-7.859c.173-.418.153-1.162.043-1.99a19.876 19.876 0 00-.248-1.41c-.029-.145-.06-.289-.092-.43-.013-.053-.024-.107-.038-.159-.258-1.12-.533-2.015-.533-2.015s.295-.424.724-.963c1.167-1.47 3.316-3.792 3.147-.688-.036.629.04 1.259.225 1.861 0 .036.02.072.034.105.597 1.832 2.054 3.295 3.173 4.202a12.6 12.6 0 001.45 1.026l.369 4.737z" fill="#A1616A"/><path opacity=".1" d="M159.546 139.586l6.588-2.912v5.095a2.24 2.24 0 01-.427-.199c-1.302-.802-2.922-.179-3.037-.179-.114 0-1.42.551-2.801-.276a2.68 2.68 0 00-.179-.098c-.097-.813-.144-1.431-.144-1.431zm18.063-3.918v5.346a2.375 2.375 0 00-.225.495c-.238.551-1.854.749-3.275.516a20.303 20.303 0 00-2.722-.171c-.209-1.496-.357-3.276-.357-3.276l6.579-2.91z" fill="#000"/><path d="M184.08 136.952c-1.106.156-3.866 2.515-5.246 2.987-1.38.473-1.223.549-1.459 1.1s-1.854.746-3.275.513c-1.42-.233-4.102-.159-4.102-.159s-2.987.515-4.298-.293c-1.31-.809-2.922-.18-3.037-.18-.114 0-1.42.551-2.8-.275-1.38-.827-3.235-.511-3.235-.511s-1.499-.864-2.367-.392c-.867.473-2.76-.943-3.234-1.375-.475-.432.899-1.807 1.933-2.202 1.034-.394 2.998-6.367 3.194-6.562.195-.195 1.065-2.28.946-3.104-.119-.824 2.248-4.6 2.248-4.6l1.497-5.076.45-1.567.017-.934c0-.421.021-.961.032-1.568.04-2.509.083-6.229 0-7.911-.014-.26-.027-.47-.045-.623-.198-1.688 1.573-5.375 2.012-6.13.323-.557 2.418-.98 3.666-1.243.297-.053.592-.123.881-.21.113-.029.23-.038.346-.027 1.178.047 4.651.773 4.651.773-.315 9.471.317 7.821.317 7.821 1.025-.786.393-7.743.393-7.743.513.235 1.036-.356 1.036-.356l2.001.826c.609.365 1.198.762 1.764 1.19.475.333.892.742 1.234 1.209.592.983 1.421 3.774 1.421 3.774l-.71 1.12c-.621.992-1.574 2.517-2.551 4.063l-1.736 2.752a364.074 364.074 0 01-1.67 2.63.968.968 0 00-.123.316 1.653 1.653 0 00-.03.224c-.011.313.02.626.092.931.497 2.347 2.743 6.193 2.743 6.193s2.248 3.418 2.288 4.518c.04 1.099 2.446 2.28 2.999 3.773.553 1.494 1.773 2.043 1.616 2.948-.158.905 1.573 1.297 1.892 1.886.32.589-.647 1.337-1.751 1.494z" fill="#FA595F"/><path opacity=".1" d="M187.034 127.475c-.609.41-1.681.395-2.037.339l-.128-1.75 2.169.276a6.619 6.619 0 00-.004 1.135z" fill="#000"/><path d="M179.425 102.957l1.619 1.14s.748 2.986 1.418 4.047c.67 1.062.591 2.437.591 2.437.226.25.437.512.632.786.474.63 1.103 3.785.867 4.193-.236.408 1.363 3.785 1.363 3.785s.224.224.69 1.454c.465 1.229 0 2.634 0 2.634s1.222 2.712.71 3.458c-.513.746-2.171.672-2.407.589-.237-.083.631-.511-.9-.629-1.53-.119-3.551-2.829-3.551-2.829a16.863 16.863 0 01-1.735-4.598 33.723 33.723 0 00-1.419-4.874c-.198-.589-1.065-4.401-1.065-4.401l3.187-7.192z" fill="#FA595F"/><path opacity=".1" d="M167.316 102.957s-.119 9.118-1.222 10.926l1.222-10.926zm6.391 3.223s-1.025 9.118-1.834 9.588c-.81.471 1.834-9.588 1.834-9.588zm-1.486-1.297s-.25 8.599-1.551 9.448c-1.301.848 1.551-9.448 1.551-9.448zm-11.333 16.27s-1.632 4.755-1.448 6.719c.184 1.964 1.448-6.719 1.448-6.719z" fill="#000"/><path opacity=".1" d="M174.316 116.454c-2.135.477-7.912 1.332-12.992-1.817 0-.421.02-.96.031-1.567 1.929 1.057 7.346 3.807 10.104 3.037 1.376-.392 2.248-.641 2.794-.802-.055.383-.033.774.063 1.149z" fill="#000"/><path opacity=".1" d="M174.316 115.983c-2.135.475-7.912 1.331-12.992-1.816 0-.421.02-.963.031-1.568 1.929 1.057 7.346 3.808 10.104 3.037a378.4 378.4 0 002.794-.799c-.054.382-.033.772.063 1.146z" fill="#000"/><path d="M174.316 116.151c-2.135.475-7.912 1.331-12.992-1.816 0-.421.02-.961.031-1.568 1.929 1.057 7.346 3.808 10.104 3.037a378.4 378.4 0 002.794-.799c-.054.382-.033.772.063 1.146z" fill="#605D82"/><path opacity=".1" d="M174.316 116.151c-2.135.475-7.912 1.331-12.992-1.816 0-.421.02-.961.031-1.568 1.929 1.057 7.346 3.808 10.104 3.037a378.4 378.4 0 002.794-.799c-.054.382-.033.772.063 1.146zm-9.191 54.083c0 .051-.012.085-.014.096l-3.297 2.506c.526-.477.661-1.588.658-2.618v-.336a6.635 6.635 0 011.219-1.939c.562-.146.914 0 1.124.253v.071c.044.054.084.113.116.175.331.567.236 1.492.194 1.792z" fill="#000"/><path opacity=".1" d="M164.868 168.962l-2.488 1.702.038-.493a6.798 6.798 0 011.275-2.072c.562-.143.915 0 1.124.253.02.368.051.61.051.61z" fill="#000"/><path d="M165.109 170.491a6.176 6.176 0 00-.517 2.531 3.9 3.9 0 01-.528 2.041 1.93 1.93 0 01-.173.248s-1.729-.013-2.333-.513a.575.575 0 01-.167-.19c-.346-.688.675-3.322.675-3.322.534-2.031 1.622-3.115 1.622-3.115 1.94-.506 1.421 2.32 1.421 2.32z" fill="#5A5773"/><path opacity=".1" d="M164.064 175.056a1.8 1.8 0 01-.173.248s-1.729-.013-2.334-.512c.297-.981 1.248-3.949 1.691-3.445.443.504.71 2.761.816 3.709z" fill="#000"/><path d="M163.825 171.537l-.119 4.448h.58s.092-3.901.353-4.448c.261-.546-.814 0-.814 0z" fill="#5A5773"/><path opacity=".1" d="M176.6 169.233l-.014.091-3.282 2.489c.511-.488.643-1.586.641-2.603v-.338a6.616 6.616 0 011.216-1.937c.562-.146.917 0 1.135.251v.073a.877.877 0 01.117.173c.326.576.229 1.503.187 1.801z" fill="#000"/><path opacity=".1" d="M176.343 167.952l-2.488 1.704.041-.493a6.708 6.708 0 011.272-2.072c.562-.143.915-.011 1.135.254.009.367.04.607.04.607z" fill="#000"/><path d="M176.586 169.483a6.13 6.13 0 00-.519 2.531 3.897 3.897 0 01-.528 2.041 1.93 1.93 0 01-.173.248s-1.729-.013-2.334-.513a.62.62 0 01-.161-.192c-.344-.688.674-3.322.674-3.322.535-2.031 1.623-3.115 1.623-3.115 1.935-.5 1.418 2.322 1.418 2.322z" fill="#5A5773"/><path opacity=".1" d="M175.539 174.055a1.93 1.93 0 01-.173.248s-1.729-.013-2.334-.513c.297-.981 1.248-3.95 1.691-3.447.443.504.71 2.758.816 3.712z" fill="#000"/><path d="M175.303 170.529l-.122 4.446h.58s.092-3.899.353-4.446c.261-.546-.811 0-.811 0z" fill="#5A5773"/><path opacity=".1" d="M180.47 106.456c-.027 1.12-.64 2.313-1.717 2.647-.315.096-.65.119-.971.184a2.085 2.085 0 00-.45.136c-.69.316-1.034 1.1-1.173 1.844-.049.255-.081.513-.112.772a5.566 5.566 0 01-.308 1.449 3.675 3.675 0 01-1.515 1.721 9.793 9.793 0 01-2.516 1.048 5.622 5.622 0 00.675-4.681c-.144-.459-.45-.972-.938-.959-.379.011-.651.347-.935.603-1.393 1.249-3.574.692-5.338.062 3.147-3.187 4.021-8.363 2.124-12.405a4.13 4.13 0 01-.387-1.002 2.093 2.093 0 01.097-1.034c.153-.424.368-.824.638-1.185.111-.155.225-.307.342-.462.151-.203.301-.41.436-.622.2-.298.352-.625.45-.97.2-.761-.081-1.725-.821-1.984l-.04-.016c-.818-.255-1.072-.332-1.63-.986-.373-.434-.584-1.12-1.223-1.247-.49-.1-1.038.116-1.553.249a4.32 4.32 0 012.151-3.103 4.35 4.35 0 015.364.87 4.304 4.304 0 011.053 3.621 4.323 4.323 0 01-.745 1.785c.575 1.882 2.065 3.382 3.207 4.307l2.001.827c.609.364 1.198.761 1.764 1.189a25.722 25.722 0 001.272 4.096c.275.655.5 1.329.675 2.016.092.403.134.816.123 1.23z" fill="#000"/><path d="M168.157 91.445c.769.24 1.065 1.225.861 2-.205.775-.755 1.402-1.221 2.054-.465.652-.879 1.431-.737 2.22.084.349.214.685.387 1 1.897 4.043 1.011 9.217-2.124 12.407 1.764.629 3.947 1.187 5.338-.063.283-.255.555-.591.935-.603.483-.015.796.5.937.959a5.616 5.616 0 01-.674 4.679c1.625-.471 3.41-1.199 4.033-2.766.278-.701.278-1.481.418-2.224.139-.744.483-1.526 1.173-1.841.45-.202.955-.177 1.421-.321 1.076-.333 1.69-1.525 1.717-2.647.027-1.122-.405-2.199-.809-3.245-2.248-5.824-.135-1.158-1.367-8.166-.252-1.432.142-2.287.463-3.703.322-1.415.252-3.055-.735-4.125-.987-1.07-2.52-1.27-3.745-1.996-1.085-.645-2.041-1.731-3.304-1.71-.926.013-.924.163-1.778.521-1.477.618-3.133.432-4.635.943-1.349.461-3.061 1.97-2.652 3.583.55 2.17 2.061.574 3.239.818.638.134.849.81 1.223 1.247.566.645.818.724 1.636.98z" fill="#4A4347"/><path d="M153.973 117.919s-.638-.068-1.497-.2c-2.247-.34-6.048-1.12-3.886-2.239 1.985-1.035 4.72-.157 6.321.546.455.2.899.425 1.33.672l-2.268 1.221z" fill="#A1616A"/><path opacity=".1" d="M165.936 104.254s-1.025 5.151-1.537 6.287c-.513 1.135-1.349 4.128-1.349 4.128s-1.212 1.093-2.212 2.154l.45-1.567.018-.934c0-.421.02-.961.031-1.568.041-2.509.083-6.229 0-7.911l.144-.264.798-1.261s1.302-3.458 2.05-4.441c.749-.984 1.607 5.377 1.607 5.377zm-11.335 12.981s-.115.448-.308 1.053a9.029 9.029 0 00-.601-.224c-.674-.224.12-.51-.078-1.1-.169-.506-.481-.347-.841-.488a9.75 9.75 0 01.762-.911l1.066 1.67z" fill="#000"/><path d="M162.149 103.311l-.798 1.261s-1.084 2-1.252 2.621c-.169.62-.506 2.994-1.18 3.545-.675.551-2.053 2.318-1.855 2.672.198.354-1.854.786-1.854.786s-1.38.551-1.302.983c.079.433-1.144.787-.71 1.1.434.314.829 0 1.027.589.198.589-.593.867.079 1.102.672.235 2.879 1.156 2.879 1.156s1.774.298 2.286-.764c.513-1.062 3.433-3.693 3.433-3.693s.827-2.988 1.348-4.128c.522-1.14 1.54-6.287 1.54-6.287s-.829-6.367-1.573-5.375-2.068 4.432-2.068 4.432z" fill="#FA595F"/><path opacity=".1" d="M159.901 113.45s-3.905.511-1.814 1.376c2.09.864 2.801 0 2.801 0l-.987-1.376zm-4.851 2.318s2.288-.47 2.88 0c.591.471-2.88 0-2.88 0zm-.236 1.181s.157-.394.946 0c.789.394-.946 0-.946 0zm25.814 3.754s.238 3.583 1.207 3.7c.969.116-1.207-3.7-1.207-3.7zm2.072-8.113s.164 1.096-.865 1.293c-1.03.197.865-1.293.865-1.293zm-11.677 10.659s-.052 11.058 2.209 12.419l-2.209-12.419zm2.996.473s-.04 11.055 2.208 12.419l-2.208-12.419zm-12.016 23.94a8.242 8.242 0 011.539 0c.857.069-1.539 0-1.539 0zm0 .773a8.242 8.242 0 011.539 0c.857.078-1.539 0-1.539 0zm11.699-1.68a8.253 8.253 0 011.54 0c.856.081-1.54 0-1.54 0zm.263.618a8.428 8.428 0 011.54 0c.854.078-1.54 0-1.54 0zm-7.813-36.635c3.147-3.187 4.021-8.361 2.124-12.406a4.089 4.089 0 01-.386-1c-.142-.79.269-1.569.737-2.22.467-.652 1.018-1.28 1.22-2.054.203-.775-.092-1.76-.861-1.998-.818-.255-1.072-.334-1.629-.988-.373-.434-.585-1.12-1.223-1.245-1.178-.244-2.697 1.344-3.239-.82-.31-1.214.596-2.374 1.641-3.066-1.306.54-2.817 1.973-2.43 3.49.551 2.17 2.061.575 3.239.82.638.131.85.81 1.223 1.245.56.654.811.732 1.629.987.769.238 1.066 1.223.861 1.998-.204.775-.755 1.402-1.22 2.054-.465.652-.879 1.431-.737 2.222.084.348.214.684.386.999 1.897 4.044 1.012 9.218-2.124 12.405 1.699.607 3.783 1.145 5.17.07-1.315.461-2.978.006-4.381-.493zm12.167-1.857a1.564 1.564 0 00-.449.309c.355-.087.73-.098 1.079-.208a2.01 2.01 0 00.732-.408c-.447.126-.937.112-1.362.307zm-3.915 6.216c-.554.246-1.125.452-1.709.615a5.607 5.607 0 00.675-4.678c-.142-.448-.45-.975-.938-.961a1.197 1.197 0 00-.746.425c.45.016.758.513.899.959a5.611 5.611 0 01-.674 4.679 9.927 9.927 0 002.493-1.039z" fill="#000"/><defs><linearGradient id="paint0_linear" x1="168.519" y1="176.236" x2="168.519" y2="82.95" gradientUnits="userSpaceOnUse"><stop stop-color="gray" stop-opacity=".25"/><stop offset=".54" stop-color="gray" stop-opacity=".12"/><stop offset="1" stop-color="gray" stop-opacity=".1"/></linearGradient></defs></svg>