<svg fill="none" xmlns="http://www.w3.org/2000/svg" viewBox="0 0 382 382"><circle cx="191" cy="191" r="191" fill="#fff"/><path d="M80.888 138.666h8.468v72.128h-8.468v-72.128zm89.182 122.218l-.546-8.451c32.909-2.125 46.847-9.555 46.847-12.155V138.666h8.468v101.612c0 15.839-41.919 19.776-54.769 20.606z" fill="#000"/><path d="M174.033 273.205v-31.987l-11.863-3.019a55.807 55.807 0 00-1.694-4.047l6.266-10.538-22.617-22.618-10.538 6.262a57.147 57.147 0 00-4.048-1.693l-3.022-11.859H94.53l-3.019 11.863a56.803 56.803 0 00-4.047 1.694l-10.538-6.262-22.617 22.617 6.266 10.538a57.889 57.889 0 00-1.694 4.047l-11.863 3.019v31.987l11.863 3.018a55.77 55.77 0 001.694 4.048l-6.267 10.538 22.618 22.617 10.538-6.262a56.803 56.803 0 004.047 1.694l3.023 11.859h31.987l3.018-11.863a57.161 57.161 0 004.048-1.694l10.538 6.262 22.617-22.617-6.266-10.538a57.957 57.957 0 001.694-4.048l11.863-3.018zm-63.508 17.879c-18.705 0-33.87-15.166-33.87-33.871 0-18.705 15.165-33.87 33.87-33.87s33.871 15.165 33.871 33.87-15.166 33.871-33.871 33.871z" fill="#6C78AF"/><path d="M110.525 295.318c-21.008 0-38.104-17.092-38.104-38.105 0-21.012 17.096-38.104 38.104-38.104 21.009 0 38.105 17.092 38.105 38.104 0 21.013-17.096 38.105-38.105 38.105zm0-67.742c-16.342 0-29.637 13.299-29.637 29.637 0 16.339 13.295 29.637 29.637 29.637 16.343 0 29.637-13.298 29.637-29.637 0-16.338-13.294-29.637-29.637-29.637z" fill="#000"/><path d="M110.525 278.382c-11.672 0-21.169-9.496-21.169-21.169 0-11.672 9.497-21.169 21.169-21.169 11.673 0 21.169 9.497 21.169 21.169 0 11.673-9.496 21.169-21.169 21.169zm0-33.87c-7.002 0-12.701 5.699-12.701 12.701 0 7.003 5.699 12.702 12.701 12.702 7.003 0 12.702-5.699 12.702-12.702 0-7.002-5.699-12.701-12.702-12.701z" fill="#000"/><path d="M258.71 248.746h33.87v16.935h-33.87v-16.935z" fill="#F0BC5E"/><path d="M258.71 79.392h33.87v50.806h-33.87V79.392z" fill="#F89C0E"/><path d="M152.864 159.835c24.895 0 71.975-4.424 71.975-21.169s-47.08-21.169-71.975-21.169c-24.895 0-71.976 4.424-71.976 21.169s47.081 21.169 71.976 21.169zm0-33.871c41.254 0 63.507 9.014 63.507 12.702 0 3.688-22.253 12.701-63.507 12.701-41.255 0-63.508-9.013-63.508-12.701 0-3.688 22.253-12.702 63.508-12.702zm47.69 46.619a118.19 118.19 0 008.518-2.1l-2.337-8.137c-2.49.715-5.157 1.367-7.922 1.952l1.741 8.285zm-34.32 3.921a257.37 257.37 0 008.591-.483l-.61-8.442c-2.82.203-5.606.355-8.324.466l.343 8.459zm17.181-1.262c2.866-.313 5.737-.682 8.578-1.118l-1.283-8.37c-2.722.419-5.47.771-8.214 1.067l.919 8.421zm15.398 57.038l1.741 8.286a120.492 120.492 0 008.518-2.096l-2.337-8.137a111.768 111.768 0 01-7.922 1.947zm-16.313 2.532l.919 8.417c2.867-.313 5.737-.682 8.578-1.118l-1.283-8.37c-2.722.423-5.47.775-8.214 1.071z" fill="#000"/><path d="M224.839 172.537h-8.468c0 3.687-22.253 12.701-63.507 12.701-41.255 0-63.508-9.014-63.508-12.701h-8.468c0 16.744 47.081 21.169 71.976 21.169 24.895 0 71.975-4.425 71.975-21.169zm-61.742 47.436l3.645 3.645-2.853 4.801c29.797-1.156 60.95-8.4 60.95-22.012h-8.468c0 3.557-18.146 12.3-53.274 13.566z" fill="#000"/><path d="M309.515 151.367V58.223h-67.741v93.144h29.637v21.771a16.912 16.912 0 00-12.1 12.1h-38.706v8.468h38.706a16.912 16.912 0 0012.1 12.1v21.77h-29.637v93.145h67.741v-93.145h-29.636v-21.77c7.282-1.892 12.701-8.463 12.701-16.334s-5.419-14.442-12.701-16.334v-21.771h29.636zm-8.467 160.886h-50.806v-76.209h50.806v76.209zm-16.936-122.781c0 4.67-3.797 8.468-8.467 8.468s-8.468-3.798-8.468-8.468 3.798-8.468 8.468-8.468 8.467 3.798 8.467 8.468zm-33.87-122.781h50.806V142.9h-50.806V66.69z" fill="#000"/><path d="M258.71 244.512h33.87v8.467h-33.87v-8.467zm33.87 33.87h-33.87v25.403h33.87v-25.403zm-8.467 16.936h-16.936v-8.468h16.936v8.468zM258.71 75.159h33.87v8.467h-33.87v-8.468zm0 16.935h33.87v8.467h-33.87v-8.467zm0 16.935h33.87v8.468h-33.87v-8.468zm0 16.935h33.87v8.468h-33.87v-8.468zm0 135.483h33.87v8.468h-33.87v-8.468zm-84.677-127.015h8.467v8.468h-8.467v-8.468zm-16.936 0h8.468v8.468h-8.468v-8.468zm33.871 0h8.468v8.468h-8.468v-8.468zm-84.676 0h8.467v8.468h-8.467v-8.468zm16.935 0h8.467v8.468h-8.467v-8.468zm16.935 0h8.468v8.468h-8.468v-8.468z" fill="#000"/></svg>