<svg fill="none" xmlns="http://www.w3.org/2000/svg" viewBox="0 0 244 176"><g clip-path="url(#clip0)"><path d="M213.01 60.548c-8.83-6.615-22.662-12.87-37.947-17.163-13.917-3.909-27.491-5.796-38.225-5.314l-.056-1.25c10.862-.488 24.577 1.415 38.619 5.358 15.427 4.333 29.408 10.663 38.358 17.366l-.749 1.003z" fill="#CCC"/><path d="M212.094 65.643a41.734 41.734 0 01-4.22 18.342 41.776 41.776 0 01-19.548 19.403 41.665 41.665 0 01-27.354 2.996 41.729 41.729 0 01-23.271-14.713 41.877 41.877 0 01-8.975-28.909c.031-.484.072-.966.121-1.445a41.846 41.846 0 0114.381-27.448 41.686 41.686 0 0129.292-9.985 41.702 41.702 0 0128.104 12.967 41.867 41.867 0 0111.47 28.792z" fill="#F89C0E"/><path opacity=".1" d="M208.495 82.653c-.198.448-.405.892-.621 1.332-1.219.133-2.503.229-3.851.289a76.74 76.74 0 01-3.437.075c-10.249 0-22.582-1.895-35.182-5.433-14.042-3.944-26.746-9.46-35.772-15.533a63.697 63.697 0 01-.906-.621c.031-.484.072-.966.121-1.445.479.342.972.684 1.481 1.027 8.92 6 21.496 11.458 35.413 15.366 12.49 3.508 24.708 5.387 34.839 5.387 1.158 0 2.287-.024 3.387-.074a59.002 59.002 0 004.528-.37z" fill="#000"/><path d="M200.586 83.348c-10.248 0-22.583-1.896-35.182-5.434-14.042-3.943-26.746-9.46-35.772-15.532-9.215-6.2-13.536-12.31-12.167-17.202 1.368-4.893 8.229-7.862 19.317-8.36l.056 1.251c-5.178.233-9.398 1.004-12.543 2.292-3.137 1.285-5.03 3.02-5.627 5.155-.598 2.135.12 4.603 2.134 7.334 2.018 2.739 5.223 5.595 9.526 8.49 8.919 6.001 21.496 11.458 35.413 15.367 12.491 3.507 24.707 5.387 34.839 5.387 1.158 0 2.286-.025 3.387-.074 5.178-.232 9.398-1.003 12.542-2.292 3.137-1.285 5.031-3.02 5.628-5.154 1.073-3.835-2.169-8.816-9.127-14.028l.749-1.003c3.58 2.682 6.231 5.326 7.877 7.858 1.766 2.714 2.339 5.24 1.704 7.51-1.369 4.893-8.229 7.862-19.317 8.36-1.116.05-2.264.075-3.437.075z" fill="#CCC"/><path d="M171.465 16.287a.479.479 0 10-.001-.958.479.479 0 00.001.958z" fill="#F2F2F2"/><path d="M108.02 37.079a.823.823 0 100-1.647.823.823 0 000 1.647zm-1.753 33.067c.898 0 1.625-.729 1.625-1.628 0-.9-.727-1.629-1.625-1.629s-1.625.73-1.625 1.629c0 .9.727 1.628 1.625 1.628zm97.557-50.378a1.084 1.084 0 10-.002-2.169 1.084 1.084 0 00.002 2.169zm38.417 45.72A1.76 1.76 0 00244 63.726a1.76 1.76 0 00-1.759-1.762 1.76 1.76 0 00-1.758 1.762 1.76 1.76 0 001.758 1.762zm-13.752-29.149a.756.756 0 10-.001-1.512.756.756 0 00.001 1.512zm-91.616-9.289c.65 0 1.177-.529 1.177-1.18 0-.652-.527-1.18-1.177-1.18s-1.177.528-1.177 1.18c0 .651.527 1.18 1.177 1.18zm88.975 33.86a.755.755 0 100-1.512.755.755 0 000 1.511zM110.093 92.458a.94.94 0 000-1.882.94.94 0 00-.939.941c0 .52.42.941.939.941zm18.969 13.175c.562 0 1.017-.456 1.017-1.019a1.018 1.018 0 10-2.034 0c0 .563.456 1.019 1.017 1.019zM158.628 2.01h-2.007V0h-1.077v2.01h-2.008v1.08h2.008v2.012h1.077V3.09h2.007V2.01zm46.555 108.811h-1.26v-1.263h-.676v1.263h-1.26v.677h1.26v1.263h.676v-1.263h1.26v-.677zm29.087-6.463h-.942v-.944h-.506v.944h-.942v.507h.942v.943h.506v-.943h.942v-.507z" fill="#CCC"/><path opacity=".1" d="M170.986 36.414a3.51 3.51 0 003.507-3.514 3.51 3.51 0 00-3.507-3.513 3.51 3.51 0 00-3.507 3.513 3.51 3.51 0 003.507 3.514zm-26.94 25.715a3.51 3.51 0 003.507-3.514 3.51 3.51 0 00-3.507-3.514 3.51 3.51 0 00-3.506 3.514 3.51 3.51 0 003.506 3.514zm38.736 35.298a3.51 3.51 0 003.507-3.514 3.51 3.51 0 00-3.507-3.514 3.511 3.511 0 00-3.507 3.514 3.511 3.511 0 003.507 3.514zM170.986 67.56a3.51 3.51 0 003.507-3.514 3.51 3.51 0 00-3.507-3.514 3.51 3.51 0 00-3.507 3.514 3.51 3.51 0 003.507 3.513zM145.8 86.885a3.51 3.51 0 003.507-3.514 3.51 3.51 0 00-3.507-3.513 3.51 3.51 0 00-3.507 3.513 3.51 3.51 0 003.507 3.514zm43.996-38.172a3.51 3.51 0 003.507-3.514 3.51 3.51 0 00-3.507-3.514 3.511 3.511 0 00-3.507 3.514 3.511 3.511 0 003.507 3.514zm11.637 23.797a3.51 3.51 0 003.507-3.513 3.51 3.51 0 00-3.507-3.514 3.51 3.51 0 00-3.507 3.514 3.51 3.51 0 003.507 3.514z" fill="#000"/><path d="M170.986 53.344a4.628 4.628 0 004.623-4.632 4.628 4.628 0 00-4.623-4.631 4.627 4.627 0 00-4.622 4.631 4.627 4.627 0 004.622 4.632z" fill="#fff"/><path d="M170.986 42.004a6.53 6.53 0 00-4.621 1.918 6.553 6.553 0 00-1.914 4.63c0 3.617 6.535 15.493 6.535 15.493s6.536-11.876 6.536-15.492a6.557 6.557 0 00-1.914-4.63 6.53 6.53 0 00-4.622-1.919zm0 9.743a3.023 3.023 0 01-2.798-1.873 3.041 3.041 0 01.657-3.307 3.024 3.024 0 014.66.46 3.045 3.045 0 01-.377 3.831 3.022 3.022 0 01-2.142.89z" fill="#CCC"/><path d="M145.8 73.15a4.628 4.628 0 004.623-4.632 4.628 4.628 0 00-4.623-4.632 4.628 4.628 0 00-4.623 4.632 4.628 4.628 0 004.623 4.632z" fill="#fff"/><path d="M145.8 61.81c-1.733 0-3.396.69-4.621 1.917a6.555 6.555 0 00-1.915 4.63c0 3.618 6.536 15.494 6.536 15.494s6.536-11.876 6.536-15.493a6.55 6.55 0 00-6.536-6.549zm0 9.742a3.026 3.026 0 01-2.798-1.873 3.042 3.042 0 01.656-3.307 3.031 3.031 0 013.301-.658 3.032 3.032 0 011.87 2.804 3.043 3.043 0 01-1.87 2.803 3.02 3.02 0 01-1.159.231z" fill="#CCC"/><path d="M201.433 58.775a4.628 4.628 0 004.623-4.632 4.628 4.628 0 00-4.623-4.632 4.628 4.628 0 00-4.623 4.632 4.628 4.628 0 004.623 4.632z" fill="#fff"/><path d="M201.433 47.435a6.525 6.525 0 00-4.621 1.918 6.541 6.541 0 00-1.915 4.63c0 3.617 6.536 15.493 6.536 15.493s6.536-11.876 6.536-15.493a6.55 6.55 0 00-6.536-6.548zm0 9.743a3.028 3.028 0 01-2.798-1.874 3.04 3.04 0 01.656-3.307 3.032 3.032 0 013.301-.658 3.038 3.038 0 010 5.607 3.02 3.02 0 01-1.159.232z" fill="#CCC"/><path d="M170.986 22.2a4.628 4.628 0 004.623-4.633 4.628 4.628 0 00-4.623-4.632 4.627 4.627 0 00-4.622 4.632 4.627 4.627 0 004.622 4.632z" fill="#fff"/><path d="M170.986 10.86a6.53 6.53 0 00-4.621 1.917 6.553 6.553 0 00-1.914 4.63c0 3.617 6.535 15.493 6.535 15.493s6.536-11.876 6.536-15.492a6.558 6.558 0 00-1.914-4.63 6.53 6.53 0 00-4.622-1.919zm0 9.742a3.033 3.033 0 01-2.97-3.627 3.034 3.034 0 012.379-2.384 3.023 3.023 0 013.11 1.29 3.045 3.045 0 01-.377 3.832 3.022 3.022 0 01-2.142.889z" fill="#CCC"/><path d="M182.782 83.69a4.627 4.627 0 004.623-4.63 4.627 4.627 0 00-4.623-4.633 4.627 4.627 0 00-4.622 4.632 4.627 4.627 0 004.622 4.632z" fill="#fff"/><path d="M182.782 72.351a6.53 6.53 0 00-4.621 1.918 6.553 6.553 0 00-1.914 4.63c0 3.617 6.535 15.493 6.535 15.493s6.536-11.876 6.536-15.493a6.557 6.557 0 00-4.034-6.05 6.526 6.526 0 00-2.502-.498zm0 9.743a3.033 3.033 0 01-2.97-3.627 3.034 3.034 0 012.38-2.384 3.03 3.03 0 013.619 2.976 3.043 3.043 0 01-.887 2.146 3.022 3.022 0 01-2.142.889z" fill="#3F3D56"/><path d="M144.047 48.074a4.627 4.627 0 004.622-4.632 4.627 4.627 0 00-4.622-4.632 4.627 4.627 0 00-4.623 4.632 4.627 4.627 0 004.623 4.632z" fill="#fff"/><path d="M144.047 36.734a6.53 6.53 0 00-4.622 1.918 6.553 6.553 0 00-1.914 4.63c0 3.617 6.536 15.493 6.536 15.493s6.535-11.876 6.535-15.493a6.553 6.553 0 00-1.914-4.63 6.53 6.53 0 00-4.621-1.918zm0 9.742c-.6 0-1.185-.178-1.683-.511a3.04 3.04 0 01-.459-4.669 3.024 3.024 0 014.66.46 3.037 3.037 0 01-2.518 4.72z" fill="#3F3D56"/><path d="M189.796 35.136a4.628 4.628 0 004.623-4.632 4.628 4.628 0 00-4.623-4.631 4.627 4.627 0 00-4.622 4.631 4.627 4.627 0 004.622 4.632z" fill="#fff"/><path d="M189.796 23.796a6.53 6.53 0 00-4.621 1.918 6.553 6.553 0 00-1.914 4.63c0 3.617 6.535 15.494 6.535 15.494s6.536-11.877 6.536-15.493a6.558 6.558 0 00-1.914-4.63 6.53 6.53 0 00-4.622-1.919zm0 9.743a3.023 3.023 0 01-2.798-1.873 3.041 3.041 0 01.657-3.307 3.024 3.024 0 014.66.46 3.045 3.045 0 01-.377 3.831 3.025 3.025 0 01-2.142.89z" fill="#3F3D56"/><path d="M57.042 172.409l3.68-.419.14-14.418-5.43.618 1.61 14.219z" fill="#FFB8B8"/><path d="M68.205 174.607l-11.563 1.315-.507-4.477 7.095-.807a4.494 4.494 0 014.975 3.969z" fill="#2F2E41"/><path d="M19.204 172.179l3.703-.001 1.761-14.31h-5.465v14.311z" fill="#FFB8B8"/><path d="M30.048 175.623l-11.637.001v-4.506h7.14c1.193 0 2.337.475 3.18 1.32a4.506 4.506 0 011.317 3.185zm15.723-67.439l2.114 6.89 11.478 24.885 3.02 23.605-6.947.302-4.228-21.789-14.498-15.736-12.685 41.157-5.739-.606s4.833-53.261 11.477-58.708c0 0 10.873-5.145 16.008 0z" fill="#2F2E41"/><path d="M36.393 78.452c4.097 0 7.418-3.328 7.418-7.433s-3.321-7.433-7.418-7.433c-4.097 0-7.419 3.328-7.419 7.433s3.322 7.433 7.419 7.433z" fill="#FFB8B8"/><path d="M46.526 109.545s.906-30.867-11.78-28.749c-12.685 2.118-7.399 31.927-7.399 31.927s2.718 5.447 9.363-.605c6.645-6.053 9.816-2.573 9.816-2.573z" fill="#CCC"/><path opacity=".2" d="M29.008 93.809l2.985 11.464 4.548 4.557-6.324-2.1-1.209-13.921z" fill="#000"/><path d="M46.62 122.6a3.034 3.034 0 01-1.819-1.82 3.046 3.046 0 01.225-2.565l-7.055-8.183 5.562-.726 5.847 7.883a3.06 3.06 0 011.018 3.934 3.049 3.049 0 01-3.779 1.477z" fill="#FFB8B8"/><path d="M38.03 87.083l.794 15.653 9.363 12.105-3.926 3.026-12.686-12.71s-4.53-15.433-1.208-19.973c1.246-1.702 2.62-2.17 3.85-2.09a4.16 4.16 0 012.66 1.271 4.175 4.175 0 011.153 2.718z" fill="#CCC"/><path d="M35.51 78.83a.308.308 0 00-.043-.49 4.32 4.32 0 01-2.036-3.912 4.327 4.327 0 012.452-3.665c2.18-1.042 5.136-.231 6.748-2.234a3.76 3.76 0 00.696-3.05c-.348-1.89-1.767-3.294-3.356-4.257a12.193 12.193 0 00-12.904.168 12.227 12.227 0 00-4.438 5.043 12.256 12.256 0 00-1.109 6.632c.205 1.82.766 3.86-.314 5.338-.95 1.301-2.745 1.545-4.321 1.868-3.381.693-6.643 2.292-8.937 4.875-2.294 2.582-3.518 6.206-2.826 9.593.692 3.388 3.467 6.365 6.877 6.89 2.777.427 5.643-.754 7.682-2.69 2.038-1.936 3.327-4.55 4.14-7.244.965-3.197 1.345-6.643 3.087-9.49 1.704-2.788 5.377-4.786 8.256-3.334a.308.308 0 00.346-.042z" fill="#2F2E41"/><path d="M93.026 176H.302a.301.301 0 01-.302-.303.304.304 0 01.302-.302h92.724a.304.304 0 010 .605z" fill="#3F3D56"/></g><defs><clipPath id="clip0"><path fill="#fff" d="M0 0h244v176H0z"/></clipPath></defs></svg>